<svg width="170" height="170" viewBox="0 0 170 170" fill="none" xmlns="http://www.w3.org/2000/svg">
    <g clip-path="url(#clip0_307_1373)">
        <path d="M0 21.25C0 15.6141 2.23883 10.2091 6.22398 6.22398C10.2091 2.23883 15.6141 0 21.25 0L148.75 0C154.386 0 159.791 2.23883 163.776 6.22398C167.761 10.2091 170 15.6141 170 21.25V148.75C170 154.386 167.761 159.791 163.776 163.776C159.791 167.761 154.386 170 148.75 170H21.25C15.6141 170 10.2091 167.761 6.22398 163.776C2.23883 159.791 0 154.386 0 148.75V21.25ZM159.375 21.25C159.375 18.4321 158.256 15.7296 156.263 13.737C154.27 11.7444 151.568 10.625 148.75 10.625H21.25C18.4321 10.625 15.7296 11.7444 13.737 13.737C11.7444 15.7296 10.625 18.4321 10.625 21.25V148.75C10.625 151.568 11.7444 154.27 13.737 156.263C15.7296 158.256 18.4321 159.375 21.25 159.375H148.75C151.568 159.375 154.27 158.256 156.263 156.263C158.256 154.27 159.375 151.568 159.375 148.75V21.25Z" fill="#5E2EFF"/>
        <path d="M41.25 120V50C41.25 47.6794 42.1719 45.4538 43.8128 43.8128C45.4538 42.1719 47.6794 41.25 50 41.25H71.875V32.5H50C45.3587 32.5 40.9075 34.3437 37.6256 37.6256C34.3437 40.9075 32.5 45.3587 32.5 50V120C32.5 124.641 34.3437 129.092 37.6256 132.374C40.9075 135.656 45.3587 137.5 50 137.5H71.875V128.75H50C47.6794 128.75 45.4538 127.828 43.8128 126.187C42.1719 124.546 41.25 122.321 41.25 120ZM98.125 128.75V137.5H120C124.641 137.5 129.092 135.656 132.374 132.374C135.656 129.092 137.5 124.641 137.5 120V50C137.5 45.3587 135.656 40.9075 132.374 37.6256C129.092 34.3437 124.641 32.5 120 32.5H98.125V41.25H120C122.321 41.25 124.546 42.1719 126.187 43.8128C127.828 45.4538 128.75 47.6794 128.75 50V120C128.75 122.321 127.828 124.546 126.187 126.187C124.546 127.828 122.321 128.75 120 128.75H98.125ZM85 155C83.8397 155 82.7269 154.539 81.9064 153.719C81.0859 152.898 80.625 151.785 80.625 150.625V19.375C80.625 18.2147 81.0859 17.1019 81.9064 16.2814C82.7269 15.4609 83.8397 15 85 15C86.1603 15 87.2731 15.4609 88.0936 16.2814C88.9141 17.1019 89.375 18.2147 89.375 19.375V150.625C89.375 151.785 88.9141 152.898 88.0936 153.719C87.2731 154.539 86.1603 155 85 155Z" fill="#5E2EFF"/>
    </g>
    <defs>
        <clipPath id="clip0_307_1373">
            <rect width="170" height="170" fill="white"/>
        </clipPath>
    </defs>
</svg>