<svg width="170" height="170" fill="none" viewBox="0 0 170 170" xmlns="http://www.w3.org/2000/svg"><g fill="#5E2EFF" clip-path="url(#prefix__a)"><path d="M0 21.25A21.25 21.25 0 0 1 21.25 0h127.5A21.25 21.25 0 0 1 170 21.25v127.5A21.25 21.25 0 0 1 148.75 170H21.25A21.25 21.25 0 0 1 0 148.75V21.25Zm159.375 0a10.623 10.623 0 0 0-10.625-10.625H21.25A10.625 10.625 0 0 0 10.625 21.25v127.5a10.625 10.625 0 0 0 10.625 10.625h127.5a10.624 10.624 0 0 0 10.625-10.625V21.25Z"/><path d="M41.25 120V50A8.75 8.75 0 0 1 50 41.25h21.875V32.5H50A17.5 17.5 0 0 0 32.5 50v70A17.5 17.5 0 0 0 50 137.5h21.875v-8.75H50a8.75 8.75 0 0 1-8.75-8.75Zm56.875 8.75v8.75H120a17.5 17.5 0 0 0 17.5-17.5V50A17.5 17.5 0 0 0 120 32.5H98.125v8.75H120a8.75 8.75 0 0 1 8.75 8.75v70a8.749 8.749 0 0 1-8.75 8.75H98.125ZM85 155a4.377 4.377 0 0 1-4.375-4.375V19.375a4.375 4.375 0 1 1 8.75 0v131.25A4.377 4.377 0 0 1 85 155Z"/></g><defs><clipPath id="prefix__a"><path fill="#fff" d="M0 0h170v170H0z"/></clipPath></defs></svg>