<svg width="170" height="170" viewBox="0 0 170 170" fill="none" xmlns="http://www.w3.org/2000/svg">
  <g fill="#5E2EFF" clip-path="url(#icon_svg__a)">
    <path d="M0 21.25A21.25 21.25 0 0 1 21.25 0h127.5A21.25 21.25 0 0 1 170 21.25v127.5A21.25 21.25 0 0 1 148.75 170H21.25A21.25 21.25 0 0 1 0 148.75V21.25Zm159.375 0a10.623 10.623 0 0 0-10.625-10.625H21.25A10.625 10.625 0 0 0 10.625 21.25v127.5a10.625 10.625 0 0 0 10.625 10.625h127.5a10.624 10.624 0 0 0 10.625-10.625V21.25Z"/>
    <path d="M88.54 37.006a48.134 48.134 0 0 0-3.54-.131V30c1.351 0 2.702.051 4.05.151l-.51 6.855Zm13.778 3.093a48.16 48.16 0 0 0-6.772-2.055l1.506-6.71a54.292 54.292 0 0 1 7.741 2.351l-2.475 6.414Zm9.419 4.882a48.333 48.333 0 0 0-3.018-1.857l3.389-5.98a55.19 55.19 0 0 1 6.731 4.495l-4.228 5.425a48.084 48.084 0 0 0-2.874-2.077v-.006Zm12.609 12.306a48.06 48.06 0 0 0-4.49-5.473l4.978-4.743a57.318 57.318 0 0 1 5.135 6.256l-5.623 3.96Zm5.115 9.295a48.663 48.663 0 0 0-1.472-3.218l6.14-3.093a54.777 54.777 0 0 1 3.093 7.48l-6.531 2.151a48.386 48.386 0 0 0-1.23-3.32Zm3.643 17.236a47.995 47.995 0 0 0-.687-7.047l6.772-1.17c.46 2.655.729 5.35.797 8.045l-6.875.171h-.007Zm-.9 10.573a51.22 51.22 0 0 0 .557-3.506l6.827.846a54.747 54.747 0 0 1-1.582 7.94l-6.627-1.835a48.55 48.55 0 0 0 .825-3.445Zm-6.545 16.356a48.63 48.63 0 0 0 3.341-6.243l6.284 2.785a55.424 55.424 0 0 1-3.816 7.136l-5.809-3.678Zm-6.628 8.284a45.269 45.269 0 0 0 2.407-2.598l5.211 4.489a55.676 55.676 0 0 1-2.757 2.97l-4.861-4.861Z"/>
    <path d="M85 36.875a48.125 48.125 0 1 0 34.031 82.156l4.861 4.861a55.011 55.011 0 0 1-49.63 15.066 54.998 54.998 0 0 1-40.096-32.901A55.005 55.005 0 0 1 85 30v6.875Z"/>
    <path d="M81.563 50.625A3.438 3.438 0 0 1 85 54.063V89.88l22.33 12.76a3.438 3.438 0 0 1-3.41 5.968l-24.063-13.75a3.437 3.437 0 0 1-1.732-2.984V54.062a3.438 3.438 0 0 1 3.438-3.437Z"/>
  </g>
  <defs>
    <clipPath id="icon_svg__a">
      <path fill="#fff" d="M0 0h170v170H0z"/>
    </clipPath>
  </defs>
</svg>
