<svg width="170" height="170" viewBox="0 0 170 170" fill="none" xmlns="http://www.w3.org/2000/svg">
  <g clip-path="url(#icon_svg__a)">
    <path fill="#5E2EFF" d="M0 21.25A21.25 21.25 0 0 1 21.25 0h127.5A21.25 21.25 0 0 1 170 21.25v127.5A21.25 21.25 0 0 1 148.75 170H21.25A21.25 21.25 0 0 1 0 148.75V21.25Zm159.375 0a10.623 10.623 0 0 0-10.625-10.625H21.25A10.625 10.625 0 0 0 10.625 21.25v127.5a10.625 10.625 0 0 0 10.625 10.625h127.5a10.624 10.624 0 0 0 10.625-10.625V21.25Z"/>
    <path stroke="#5E2EFF" stroke-width="6" d="M14.167 82H63.75m42.5 0h49.583"/>
    <path fill="#5E2EFF" fill-opacity=".3" d="M94.648 74.701a2.594 2.594 0 0 1 1.795-.7 2.593 2.593 0 0 1 1.785.727 2.525 2.525 0 0 1 .095 3.534L84.618 95.188a2.576 2.576 0 0 1-1.84.813 2.605 2.605 0 0 1-1.87-.745L71.82 86.28a2.517 2.517 0 0 1-.065-3.66 2.605 2.605 0 0 1 3.706.065l7.192 7.098 11.93-15.008a.646.646 0 0 1 .065-.075Z"/>
  </g>
  <defs>
    <clipPath id="icon_svg__a">
      <path fill="#fff" d="M0 0h170v170H0z"/>
    </clipPath>
  </defs>
</svg>
