<svg width="170" height="170" fill="none" viewBox="0 0 170 170" xmlns="http://www.w3.org/2000/svg"><g clip-path="url(#prefix__a)"><path fill="#5E2EFF" d="M0 21.25A21.25 21.25 0 0 1 21.25 0h127.5A21.25 21.25 0 0 1 170 21.25v127.5A21.25 21.25 0 0 1 148.75 170H21.25A21.25 21.25 0 0 1 0 148.75V21.25Zm159.375 0a10.623 10.623 0 0 0-10.625-10.625H21.25A10.625 10.625 0 0 0 10.625 21.25v127.5a10.625 10.625 0 0 0 10.625 10.625h127.5a10.624 10.624 0 0 0 10.625-10.625V21.25Z"/><path fill="#5E2EFF" stroke="#5E2EFF" stroke-width=".2" d="M35.517 103.214c0-2.884.691-5.645 1.916-7.676 1.226-2.032 2.875-3.152 4.575-3.152h79.103c1.7 0 3.349 1.12 4.575 3.152 1.225 2.031 1.916 4.792 1.916 7.676 0 2.884-.691 5.645-1.916 7.676-1.226 2.032-2.875 3.153-4.575 3.153H42.008c-1.7 0-3.35-1.121-4.575-3.153-1.225-2.031-1.916-4.792-1.916-7.676Z"/><path fill="#fff" d="m114.195 103.214-9.061 6.365-.091-12.619 9.152 6.254Z"/><path stroke="#fff" stroke-width="12" d="M46 103h50"/><path stroke="#5E2EFF" d="M35.214 67.696c0-2.817.693-5.52 1.927-7.513 1.233-1.992 2.906-3.112 4.65-3.112h78.929c1.745 0 3.418 1.12 4.651 3.112 1.234 1.993 1.927 4.696 1.927 7.513 0 2.818-.693 5.52-1.927 7.513-1.233 1.993-2.906 3.112-4.651 3.112H41.792c-1.745 0-3.418-1.119-4.651-3.112-1.234-1.992-1.927-4.695-1.927-7.513Z"/><path fill="#5E2EFF" fill-opacity=".3" d="m112.981 68-9.062 6.365-.091-12.62L112.981 68Z"/><path stroke="#5E2EFF" stroke-opacity=".3" stroke-width="12" d="M46 68h50"/></g><defs><clipPath id="prefix__a"><path fill="#fff" d="M0 0h170v170H0z"/></clipPath></defs></svg>