<svg width="170" height="170" viewBox="0 0 170 170" fill="none" xmlns="http://www.w3.org/2000/svg">
  <g fill="#5E2EFF" clip-path="url(#icon_svg__a)">
    <path d="M0 21.25A21.25 21.25 0 0 1 21.25 0h127.5A21.25 21.25 0 0 1 170 21.25v127.5A21.25 21.25 0 0 1 148.75 170H21.25A21.25 21.25 0 0 1 0 148.75V21.25Zm159.375 0a10.623 10.623 0 0 0-10.625-10.625H21.25A10.625 10.625 0 0 0 10.625 21.25v127.5a10.625 10.625 0 0 0 10.625 10.625h127.5a10.624 10.624 0 0 0 10.625-10.625V21.25Z"/>
    <path d="M21.252 115.53a4.461 4.461 0 0 0 2.613 3.95l39.526 17.942a4.47 4.47 0 0 0 4.264-.312 4.466 4.466 0 0 0 2.045-3.756l-.064-96.717a4.462 4.462 0 0 0-7.115-3.586L26.953 59.333a4.462 4.462 0 0 0-1.797 3.258l-3.894 52.494a4.46 4.46 0 0 0-.01.445Zm9.142-2.891 3.51-47.347 26.81-19.813.056 80.951-30.377-13.791Zm51.418 36.111h6.376V136h-6.376v12.75Zm0-19.125h6.376v-12.75h-6.376v12.75Zm0-19.125h6.376V97.75h-6.376v12.75Zm0-19.125h6.376v-12.75h-6.376v12.75Zm0-19.125h6.376V59.5h-6.376v12.75Zm0-19.125h6.376v-12.75h-6.376v12.75Zm0-19.125h6.376V21.25h-6.376V34Zm18.488 99.356c0 .747.186 1.482.543 2.138a4.465 4.465 0 0 0 5.765 1.929l39.525-17.943a4.46 4.46 0 0 0 2.615-3.95 4.42 4.42 0 0 0-.01-.446l-3.894-52.493a4.456 4.456 0 0 0-1.798-3.258l-35.567-26.282a4.468 4.468 0 0 0-4.661-.396 4.462 4.462 0 0 0-2.454 3.982l-.064 96.719Z"/>
  </g>
  <defs>
    <clipPath id="icon_svg__a">
      <path fill="#fff" d="M0 0h170v170H0z"/>
    </clipPath>
  </defs>
</svg>
