<svg width="170" height="170" viewBox="0 0 170 170" fill="none" xmlns="http://www.w3.org/2000/svg">
<g clip-path="url(#clip0_348_46)">
<rect width="170" height="170" fill="white"/>
<path d="M0 21.25C0 15.6141 2.23883 10.2091 6.22398 6.22398C10.2091 2.23883 15.6141 0 21.25 0L148.75 0C154.386 0 159.791 2.23883 163.776 6.22398C167.761 10.2091 170 15.6141 170 21.25V148.75C170 154.386 167.761 159.791 163.776 163.776C159.791 167.761 154.386 170 148.75 170H21.25C15.6141 170 10.2091 167.761 6.22398 163.776C2.23883 159.791 0 154.386 0 148.75V21.25ZM159.375 21.25C159.375 18.4321 158.256 15.7296 156.263 13.737C154.27 11.7444 151.568 10.625 148.75 10.625H21.25C18.4321 10.625 15.7296 11.7444 13.737 13.737C11.7444 15.7296 10.625 18.4321 10.625 21.25V148.75C10.625 151.568 11.7444 154.27 13.737 156.263C15.7296 158.256 18.4321 159.375 21.25 159.375H148.75C151.568 159.375 154.27 158.256 156.263 156.263C158.256 154.27 159.375 151.568 159.375 148.75V21.25Z" fill="#5E2EFF"/>
<g clip-path="url(#clip1_348_46)">
<path d="M112.85 35H57.15C51.2755 35 45.6415 37.3337 41.4876 41.4876C37.3337 45.6415 35 51.2755 35 57.15L35 112.85C35 118.725 37.3337 124.358 41.4876 128.512C45.6415 132.666 51.2755 135 57.15 135H112.85C118.725 135 124.358 132.666 128.512 128.512C132.666 124.358 135 118.725 135 112.85V57.15C135 51.2755 132.666 45.6415 128.512 41.4876C124.358 37.3337 118.725 35 112.85 35ZM99.1 105C96.8887 107.182 93.9063 108.403 90.8 108.4H67.5C67.4712 106.843 67.7575 105.296 68.3418 103.853C68.9261 102.409 69.7963 101.099 70.9 100C73.1113 97.8184 76.0937 96.5967 79.2 96.6H102.5C102.52 98.1559 102.23 99.7002 101.646 101.143C101.062 102.585 100.197 103.896 99.1 105ZM115.6 87.7C113.389 89.8816 110.406 91.1033 107.3 91.1H51.05C51.0309 89.574 51.3225 88.0602 51.907 86.6505C52.4915 85.2408 53.3567 83.9647 54.45 82.9C56.6613 80.7184 59.6437 79.4967 62.75 79.5H118.95C118.969 81.014 118.682 82.5162 118.106 83.9166C117.531 85.3171 116.678 86.5869 115.6 87.65V87.7ZM115.6 69.05C113.389 71.2316 110.406 72.4533 107.3 72.45H51.05C51.0309 70.924 51.3225 69.4102 51.907 68.0005C52.4915 66.5908 53.3567 65.3147 54.45 64.25C56.6613 62.0684 59.6437 60.8467 62.75 60.85H118.95C118.976 62.3724 118.692 63.8841 118.116 65.2936C117.54 66.7031 116.684 67.981 115.6 69.05Z" fill="#5E2EFF" fill-opacity="0.7"/>
</g>
</g>
<defs>
<clipPath id="clip0_348_46">
<rect width="170" height="170" fill="white"/>
</clipPath>
<clipPath id="clip1_348_46">
<rect width="100" height="100" fill="white" transform="translate(35 35)"/>
</clipPath>
</defs>
</svg>
