<svg width="170" height="170" viewBox="0 0 170 170" fill="none" xmlns="http://www.w3.org/2000/svg">
  <g clip-path="url(#icon_svg__a)">
    <path fill="#5E2EFF" d="M0 21.25A21.25 21.25 0 0 1 21.25 0h127.5A21.25 21.25 0 0 1 170 21.25v127.5A21.25 21.25 0 0 1 148.75 170H21.25A21.25 21.25 0 0 1 0 148.75V21.25Zm159.375 0a10.623 10.623 0 0 0-10.625-10.625H21.25A10.625 10.625 0 0 0 10.625 21.25v127.5a10.625 10.625 0 0 0 10.625 10.625h127.5a10.624 10.624 0 0 0 10.625-10.625V21.25Z"/>
    <path fill="#5E2EFF" d="M46 44.957V34h79v10.957H91.878V136H79.122V44.957H46Z" opacity=".3"/>
    <path fill="#117AC9" d="M116 51h30v4h-30z"/>
    <path fill="#1194F5" d="M120 100h30v4h-30z"/>
    <path fill="#D9D9D9" d="M95 65h30v4H95zm-49-7h30v4H46z"/>
    <path fill="#A96BD1" d="M20 28h30v4H20z"/>
    <path fill="#00DDB3" d="M26 117h30v4H26z"/>
    <circle cx="35" cy="92" r="4" fill="#5E2EFF" fill-opacity=".08"/>
    <circle cx="61" cy="94" r="4" fill="#A075E6"/>
    <circle cx="108" cy="92" r="4" fill="#5E2EFF" fill-opacity=".7"/>
    <circle cx="108" cy="129" r="4" fill="#E1ECFD"/>
    <circle cx="46" cy="73" r="4" fill="#5E2EFF" fill-opacity=".7"/>
  </g>
  <defs>
    <clipPath id="icon_svg__a">
      <path fill="#fff" d="M0 0h170v170H0z"/>
    </clipPath>
  </defs>
</svg>
