<svg width="30" height="30" fill="none" viewBox="0 0 30 30" xmlns="http://www.w3.org/2000/svg"><path fill="#fff" d="M4.684 21.236c-.887 0-1.61-.723-1.61-1.61 0-.886.723-1.609 1.61-1.609.886 0 1.61.723 1.61 1.61 0 .886-.724 1.61-1.61 1.61Zm0-2.332a.727.727 0 0 0-.723.723c0 .396.326.723.723.723a.727.727 0 0 0 .723-.723.727.727 0 0 0-.723-.723Zm10.305-8.613c-1.768 0-3.22 1.391-3.22 3.112 0 .519.135 1.025.39 1.473l2.66 4.645c.036.059.097.106.17.106.073 0 .146-.035.17-.106l2.659-4.645c.256-.447.39-.966.39-1.473 0-1.721-1.451-3.112-3.22-3.112Zm0 4.668c-.89 0-1.61-.695-1.61-1.556 0-.86.72-1.556 1.61-1.556.89 0 1.61.696 1.61 1.556 0 .86-.72 1.556-1.61 1.556Zm-4.426 4.994L3 15.493V13.46L10.563 9v2.925L5.985 14.47l4.578 2.545v2.938Zm-6.66-4.971 5.745 3.377v-.797l-5.03-2.794v-.571l5.03-2.795v-.797l-5.744 3.378v.999Zm15.507 4.97v-2.925l4.579-2.545-4.579-2.545V9.012l7.564 4.46v2.033l-7.564 4.447Zm.916-2.39v.797l5.744-3.378v-.987l-5.744-3.377v.797l5.03 2.795v.57l-5.03 2.783Z"/></svg>