<svg width="170" height="170" viewBox="0 0 170 170" fill="none" xmlns="http://www.w3.org/2000/svg">
  <g clip-path="url(#icon_svg__a)">
    <path fill="#5E2EFF" d="M0 21.25A21.25 21.25 0 0 1 21.25 0h127.5A21.25 21.25 0 0 1 170 21.25v127.5A21.25 21.25 0 0 1 148.75 170H21.25A21.25 21.25 0 0 1 0 148.75V21.25Zm159.375 0a10.623 10.623 0 0 0-10.625-10.625H21.25A10.625 10.625 0 0 0 10.625 21.25v127.5a10.625 10.625 0 0 0 10.625 10.625h127.5a10.624 10.624 0 0 0 10.625-10.625V21.25Z"/>
    <g clip-path="url(#icon_svg__b)">
      <path fill="#5E2EFF" fill-opacity=".7" d="M135 104.711c0 5.027-3.575 11.202-7.916 13.702l-34.168 19.699c-4.367 2.526-11.491 2.526-15.832 0l-34.168-19.699C38.55 115.887 35 109.738 35 104.711V65.289c0-5.027 3.55-11.202 7.916-13.702l34.168-19.699c4.367-2.526 11.491-2.526 15.832 0l34.142 19.699c4.367 2.5 7.916 8.675 7.916 13.702L135 104.71Z"/>
      <path fill="#fff" d="M75.296 75.878h45.251V63.171H75.398c-6.46 0-11.823 2.22-15.909 6.558-9.857 10.487-10.112 36.896-10.112 36.896h70.838V82.742h-12.718v11.176H62.962c.281-4.16 2.196-11.61 5.822-15.463 1.635-1.76 3.703-2.577 6.512-2.577Z"/>
    </g>
  </g>
  <defs>
    <clipPath id="icon_svg__a">
      <path fill="#fff" d="M0 0h170v170H0z"/>
    </clipPath>
    <clipPath id="icon_svg__b">
      <path fill="#fff" d="M35 30h100v110H35z"/>
    </clipPath>
  </defs>
</svg>
