<svg width="170" height="170" viewBox="0 0 170 170" fill="none" xmlns="http://www.w3.org/2000/svg">
  <g fill="#5E2EFF" clip-path="url(#icon_svg__a)">
    <path d="M0 21.25A21.25 21.25 0 0 1 21.25 0h127.5A21.25 21.25 0 0 1 170 21.25v127.5A21.25 21.25 0 0 1 148.75 170H21.25A21.25 21.25 0 0 1 0 148.75V21.25Zm159.375 0a10.623 10.623 0 0 0-10.625-10.625H21.25A10.625 10.625 0 0 0 10.625 21.25v127.5a10.625 10.625 0 0 0 10.625 10.625h127.5a10.624 10.624 0 0 0 10.625-10.625V21.25Z"/>
    <path fill-opacity=".3" d="M45 48.333A6.665 6.665 0 0 0 38.333 55v46.667A6.664 6.664 0 0 0 45 108.333h3.333V65A6.665 6.665 0 0 1 55 58.333h60V55a6.665 6.665 0 0 0-6.667-6.667H45ZM61.667 65A6.665 6.665 0 0 0 55 71.667V115a6.665 6.665 0 0 0 6.667 6.667H125a6.666 6.666 0 0 0 6.667-6.667V71.667A6.665 6.665 0 0 0 125 65H61.667Z"/>
  </g>
  <defs>
    <clipPath id="icon_svg__a">
      <path fill="#fff" d="M0 0h170v170H0z"/>
    </clipPath>
  </defs>
</svg>
