<svg width="170" height="170" viewBox="0 0 170 170" fill="none" xmlns="http://www.w3.org/2000/svg">
  <g clip-path="url(#icon_svg__a)">
    <path fill="#5E2EFF" d="M0 21.25A21.25 21.25 0 0 1 21.25 0h127.5A21.25 21.25 0 0 1 170 21.25v127.5A21.25 21.25 0 0 1 148.75 170H21.25A21.25 21.25 0 0 1 0 148.75V21.25Zm159.375 0a10.623 10.623 0 0 0-10.625-10.625H21.25A10.625 10.625 0 0 0 10.625 21.25v127.5a10.625 10.625 0 0 0 10.625 10.625h127.5a10.624 10.624 0 0 0 10.625-10.625V21.25Z"/>
    <g clip-path="url(#icon_svg__b)">
      <path fill="#5E2EFF" fill-opacity=".7" d="M41.25 52.675c5.531-2.313 13.462-4.806 21.175-5.581 8.313-.838 15.362.393 19.45 4.7v60.912c-5.844-3.312-13.25-3.769-20.081-3.081-7.375.75-14.813 2.881-20.544 5.069V52.675Zm46.875-.881c4.088-4.306 11.138-5.538 19.45-4.7 7.713.775 15.644 3.268 21.175 5.581v62.019c-5.737-2.188-13.169-4.325-20.544-5.063-6.837-.694-14.237-.244-20.081 3.075V51.794ZM85 46.144c-6.156-5.294-15.081-6.081-23.206-5.269-9.463.956-19.013 4.2-24.963 6.906A3.125 3.125 0 0 0 35 50.625v68.75a3.123 3.123 0 0 0 2.899 3.116 3.13 3.13 0 0 0 1.52-.272c5.512-2.5 14.394-5.507 23-6.375 8.806-.888 16.187.543 20.144 5.481a3.12 3.12 0 0 0 3.789.862 3.12 3.12 0 0 0 1.085-.862c3.957-4.938 11.338-6.369 20.138-5.481 8.613.868 17.5 3.875 23.006 6.375a3.13 3.13 0 0 0 2.985-.217 3.12 3.12 0 0 0 1.434-2.627v-68.75a3.122 3.122 0 0 0-1.831-2.844c-5.95-2.706-15.5-5.95-24.963-6.906-8.125-.819-17.05-.025-23.206 5.269Z"/>
    </g>
  </g>
  <defs>
    <clipPath id="icon_svg__a">
      <path fill="#fff" d="M0 0h170v170H0z"/>
    </clipPath>
    <clipPath id="icon_svg__b">
      <path fill="#fff" d="M35 35h100v100H35z"/>
    </clipPath>
  </defs>
</svg>
