<svg width="170" height="170" viewBox="0 0 170 170" fill="none" xmlns="http://www.w3.org/2000/svg">
<g clip-path="url(#clip0_307_1311)">
<path d="M0 21.25C0 15.6141 2.23883 10.2091 6.22398 6.22398C10.2091 2.23883 15.6141 0 21.25 0L148.75 0C154.386 0 159.791 2.23883 163.776 6.22398C167.761 10.2091 170 15.6141 170 21.25V148.75C170 154.386 167.761 159.791 163.776 163.776C159.791 167.761 154.386 170 148.75 170H21.25C15.6141 170 10.2091 167.761 6.22398 163.776C2.23883 159.791 0 154.386 0 148.75V21.25ZM159.375 21.25C159.375 18.4321 158.256 15.7296 156.263 13.737C154.27 11.7444 151.568 10.625 148.75 10.625H21.25C18.4321 10.625 15.7296 11.7444 13.737 13.737C11.7444 15.7296 10.625 18.4321 10.625 21.25V148.75C10.625 151.568 11.7444 154.27 13.737 156.263C15.7296 158.256 18.4321 159.375 21.25 159.375H148.75C151.568 159.375 154.27 158.256 156.263 156.263C158.256 154.27 159.375 151.568 159.375 148.75V21.25Z" fill="#5E2EFF"/>
<path d="M117.628 70.6094C117.69 70.4314 117.805 70.2771 117.959 70.1679C118.112 70.0587 118.296 70 118.484 70C118.673 70 118.856 70.0587 119.01 70.1679C119.163 70.2771 119.279 70.4314 119.341 70.6094L120.953 75.4469C121.672 77.6094 123.366 79.3031 125.528 80.0219L130.366 81.6344C130.544 81.6961 130.698 81.8117 130.807 81.9652C130.916 82.1186 130.975 82.3023 130.975 82.4906C130.975 82.679 130.916 82.8627 130.807 83.0161C130.698 83.1696 130.544 83.2852 130.366 83.3469L125.528 84.9594C124.462 85.3139 123.494 85.912 122.7 86.7062C121.906 87.5003 121.308 88.4687 120.953 89.5344L119.341 94.3719C119.279 94.5499 119.163 94.7042 119.01 94.8134C118.856 94.9226 118.673 94.9813 118.484 94.9813C118.296 94.9813 118.112 94.9226 117.959 94.8134C117.805 94.7042 117.69 94.5499 117.628 94.3719L116.016 89.5344C115.661 88.4687 115.063 87.5003 114.269 86.7062C113.475 85.912 112.506 85.3139 111.441 84.9594L106.609 83.3469C106.431 83.2852 106.277 83.1696 106.168 83.0161C106.059 82.8627 106 82.679 106 82.4906C106 82.3023 106.059 82.1186 106.168 81.9652C106.277 81.8117 106.431 81.6961 106.609 81.6344L111.447 80.0219C113.609 79.3031 115.303 77.6094 116.022 75.4469L117.628 70.6156V70.6094Z" fill="#5E2EFF"/>
<path d="M84.6281 70.6094C84.6898 70.4314 84.8055 70.2771 84.9589 70.1679C85.1124 70.0587 85.296 70 85.4844 70C85.6727 70 85.8564 70.0587 86.0099 70.1679C86.1633 70.2771 86.2789 70.4314 86.3406 70.6094L87.9531 75.4469C88.6719 77.6094 90.3656 79.3031 92.5281 80.0219L97.3656 81.6344C97.5436 81.6961 97.6979 81.8117 97.8071 81.9652C97.9163 82.1186 97.975 82.3023 97.975 82.4906C97.975 82.679 97.9163 82.8627 97.8071 83.0161C97.6979 83.1696 97.5436 83.2852 97.3656 83.3469L92.5281 84.9594C91.4624 85.3139 90.4941 85.912 89.6999 86.7062C88.9057 87.5003 88.3077 88.4687 87.9531 89.5344L86.3406 94.3719C86.2789 94.5499 86.1633 94.7042 86.0099 94.8134C85.8564 94.9226 85.6727 94.9813 85.4844 94.9813C85.296 94.9813 85.1124 94.9226 84.9589 94.8134C84.8055 94.7042 84.6898 94.5499 84.6281 94.3719L83.0156 89.5344C82.6611 88.4687 82.063 87.5003 81.2689 86.7062C80.4747 85.912 79.5063 85.3139 78.4406 84.9594L73.6094 83.3469C73.4314 83.2852 73.2771 83.1696 73.1679 83.0161C73.0587 82.8627 73 82.679 73 82.4906C73 82.3023 73.0587 82.1186 73.1679 81.9652C73.2771 81.8117 73.4314 81.6961 73.6094 81.6344L78.4469 80.0219C80.6094 79.3031 82.3031 77.6094 83.0219 75.4469L84.6281 70.6156V70.6094Z" fill="#5E2EFF"/>
<path d="M48.6281 70.6094C48.6898 70.4314 48.8055 70.2771 48.9589 70.1679C49.1124 70.0587 49.296 70 49.4844 70C49.6727 70 49.8564 70.0587 50.0099 70.1679C50.1633 70.2771 50.2789 70.4314 50.3406 70.6094L51.9531 75.4469C52.6719 77.6094 54.3656 79.3031 56.5281 80.0219L61.3656 81.6344C61.5436 81.6961 61.6979 81.8117 61.8071 81.9652C61.9163 82.1186 61.975 82.3023 61.975 82.4906C61.975 82.679 61.9163 82.8627 61.8071 83.0161C61.6979 83.1696 61.5436 83.2852 61.3656 83.3469L56.5281 84.9594C55.4624 85.3139 54.4941 85.912 53.6999 86.7062C52.9057 87.5003 52.3077 88.4687 51.9531 89.5344L50.3406 94.3719C50.2789 94.5499 50.1633 94.7042 50.0099 94.8134C49.8564 94.9226 49.6727 94.9813 49.4844 94.9813C49.296 94.9813 49.1124 94.9226 48.9589 94.8134C48.8055 94.7042 48.6898 94.5499 48.6281 94.3719L47.0156 89.5344C46.6611 88.4687 46.063 87.5003 45.2689 86.7062C44.4747 85.912 43.5063 85.3139 42.4406 84.9594L37.6094 83.3469C37.4314 83.2852 37.2771 83.1696 37.1679 83.0161C37.0587 82.8627 37 82.679 37 82.4906C37 82.3023 37.0587 82.1186 37.1679 81.9652C37.2771 81.8117 37.4314 81.6961 37.6094 81.6344L42.4469 80.0219C44.6094 79.3031 46.3031 77.6094 47.0219 75.4469L48.6281 70.6156V70.6094Z" fill="#5E2EFF"/>
</g>
<defs>
<clipPath id="clip0_307_1311">
<rect width="170" height="170" fill="white"/>
</clipPath>
</defs>
</svg>
