<svg width="170" height="170" fill="none" viewBox="0 0 170 170" xmlns="http://www.w3.org/2000/svg"><g fill="#5E2EFF" clip-path="url(#prefix__a)"><path d="M0 21.25A21.25 21.25 0 0 1 21.25 0h127.5A21.25 21.25 0 0 1 170 21.25v127.5A21.25 21.25 0 0 1 148.75 170H21.25A21.25 21.25 0 0 1 0 148.75V21.25Zm159.375 0a10.623 10.623 0 0 0-10.625-10.625H21.25A10.625 10.625 0 0 0 10.625 21.25v127.5a10.625 10.625 0 0 0 10.625 10.625h127.5a10.624 10.624 0 0 0 10.625-10.625V21.25Z"/><path d="M117.628 70.61a.905.905 0 0 1 1.382-.442c.153.11.269.263.331.441l1.612 4.838a7.219 7.219 0 0 0 4.575 4.575l4.838 1.612a.904.904 0 0 1 .609.857.908.908 0 0 1-.609.856l-4.838 1.612a7.22 7.22 0 0 0-4.575 4.575l-1.612 4.838a.911.911 0 0 1-.857.61.905.905 0 0 1-.856-.61l-1.612-4.838a7.232 7.232 0 0 0-4.575-4.575l-4.832-1.612a.904.904 0 0 1-.609-.856.908.908 0 0 1 .609-.857l4.838-1.612a7.219 7.219 0 0 0 4.575-4.575l1.606-4.831v-.007Zm-33 0a.906.906 0 0 1 1.713 0l1.612 4.837a7.217 7.217 0 0 0 4.575 4.575l4.838 1.612a.906.906 0 0 1 0 1.713l-4.838 1.612a7.225 7.225 0 0 0-4.575 4.575l-1.612 4.838a.906.906 0 0 1-1.713 0l-1.612-4.838a7.225 7.225 0 0 0-4.575-4.575l-4.832-1.612a.906.906 0 0 1 0-1.713l4.838-1.612a7.217 7.217 0 0 0 4.575-4.575l1.606-4.831v-.007Zm-36 0a.906.906 0 0 1 1.713 0l1.612 4.837a7.217 7.217 0 0 0 4.575 4.575l4.838 1.612a.906.906 0 0 1 0 1.713l-4.838 1.612a7.225 7.225 0 0 0-4.575 4.575l-1.612 4.838a.906.906 0 0 1-1.713 0l-1.612-4.838a7.225 7.225 0 0 0-4.575-4.575l-4.832-1.612a.906.906 0 0 1 0-1.713l4.838-1.612a7.217 7.217 0 0 0 4.575-4.575l1.606-4.831v-.007Z"/></g><defs><clipPath id="prefix__a"><path fill="#fff" d="M0 0h170v170H0z"/></clipPath></defs></svg>