<svg width="170" height="170" viewBox="0 0 170 170" fill="none" xmlns="http://www.w3.org/2000/svg">
<g clip-path="url(#clip0_333_2)">
<path d="M0 21.25C0 15.6141 2.23883 10.2091 6.22398 6.22398C10.2091 2.23883 15.6141 0 21.25 0L148.75 0C154.386 0 159.791 2.23883 163.776 6.22398C167.761 10.2091 170 15.6141 170 21.25V148.75C170 154.386 167.761 159.791 163.776 163.776C159.791 167.761 154.386 170 148.75 170H21.25C15.6141 170 10.2091 167.761 6.22398 163.776C2.23883 159.791 0 154.386 0 148.75V21.25ZM159.375 21.25C159.375 18.4321 158.256 15.7296 156.263 13.737C154.27 11.7444 151.568 10.625 148.75 10.625H21.25C18.4321 10.625 15.7296 11.7444 13.737 13.737C11.7444 15.7296 10.625 18.4321 10.625 21.25V148.75C10.625 151.568 11.7444 154.27 13.737 156.263C15.7296 158.256 18.4321 159.375 21.25 159.375H148.75C151.568 159.375 154.27 158.256 156.263 156.263C158.256 154.27 159.375 151.568 159.375 148.75V21.25Z" fill="#5E2EFF"/>
<path d="M35 110.5V60.5C35 57.1848 36.317 54.0054 38.6612 51.6612C41.0054 49.317 44.1848 48 47.5 48H122.5C125.815 48 128.995 49.317 131.339 51.6612C133.683 54.0054 135 57.1848 135 60.5V110.5C135 113.815 133.683 116.995 131.339 119.339C128.995 121.683 125.815 123 122.5 123H47.5C44.1848 123 41.0054 121.683 38.6612 119.339C36.317 116.995 35 113.815 35 110.5ZM77.4375 67.3312C76.9702 66.9986 76.4204 66.8009 75.8483 66.7599C75.2761 66.7189 74.7037 66.8362 74.1938 67.0989C73.6839 67.3616 73.2561 67.7596 72.9573 68.2493C72.6586 68.7389 72.5004 69.3014 72.5 69.875V101.125C72.5004 101.699 72.6586 102.261 72.9573 102.751C73.2561 103.24 73.6839 103.638 74.1938 103.901C74.7037 104.164 75.2761 104.281 75.8483 104.24C76.4204 104.199 76.9702 104.001 77.4375 103.669L99.3125 88.0437C99.7176 87.7547 100.048 87.373 100.276 86.9306C100.503 86.4881 100.622 85.9977 100.622 85.5C100.622 85.0023 100.503 84.5119 100.276 84.0694C100.048 83.627 99.7176 83.2453 99.3125 82.9562L77.4375 67.3312Z" fill="#5E2EFF"/>
</g>
<defs>
<clipPath id="clip0_333_2">
<rect width="170" height="170" fill="white"/>
</clipPath>
</defs>
</svg>
