<svg width="170" height="170" viewBox="0 0 170 170" fill="none" xmlns="http://www.w3.org/2000/svg">
  <g fill="#5E2EFF" clip-path="url(#icon_svg__a)">
    <path d="M0 21.25A21.25 21.25 0 0 1 21.25 0h127.5A21.25 21.25 0 0 1 170 21.25v127.5A21.25 21.25 0 0 1 148.75 170H21.25A21.25 21.25 0 0 1 0 148.75V21.25Zm159.375 0a10.623 10.623 0 0 0-10.625-10.625H21.25A10.625 10.625 0 0 0 10.625 21.25v127.5a10.625 10.625 0 0 0 10.625 10.625h127.5a10.624 10.624 0 0 0 10.625-10.625V21.25Z"/>
    <path fill-opacity=".7" d="M70.739 85.694v7.143H56.676v-7.143H70.74Zm0-14.23v7.087H56.676v-7.087H70.74Zm42.299 28.516v7.143h-19.03V99.98h19.03Zm0-14.286v7.143h-37.5v-7.143h37.5Zm0-14.23v7.087h-37.5v-7.087h37.5Zm7.533 47.991V50.259a1.07 1.07 0 0 0-.334-.781 1.073 1.073 0 0 0-.782-.335h-1.785L96.576 63.429l-11.719-9.543-11.719 9.543-21.093-14.286h-1.786a1.07 1.07 0 0 0-.781.335 1.07 1.07 0 0 0-.335.78v69.197c0 .298.111.558.335.782.223.223.483.334.78.334h69.197c.298 0 .558-.111.782-.334.223-.224.334-.484.334-.782ZM72.859 57.513l10.324-8.37H60.527l12.332 8.37Zm23.996 0 12.333-8.37H86.531l10.324 8.37Zm30.859-7.254v69.196c0 2.307-.8 4.26-2.399 5.86-1.6 1.599-3.553 2.399-5.86 2.399H50.259c-2.307 0-4.26-.8-5.86-2.399-1.6-1.6-2.399-3.553-2.399-5.86V50.259c0-2.307.8-4.26 2.4-5.86C46 42.8 47.952 42 50.259 42h69.196c2.307 0 4.26.8 5.86 2.4 1.599 1.6 2.399 3.552 2.399 5.859Z"/>
  </g>
  <defs>
    <clipPath id="icon_svg__a">
      <path fill="#fff" d="M0 0h170v170H0z"/>
    </clipPath>
  </defs>
</svg>
