<svg width="24" height="24" viewBox="0 0 24 24" fill="none" xmlns="http://www.w3.org/2000/svg">
    <g clip-path="url(#clip0_137_893)">
        <path d="M0 3C0 2.20435 0.316071 1.44129 0.87868 0.87868C1.44129 0.316071 2.20435 0 3 0L21 0C21.7956 0 22.5587 0.316071 23.1213 0.87868C23.6839 1.44129 24 2.20435 24 3V21C24 21.7956 23.6839 22.5587 23.1213 23.1213C22.5587 23.6839 21.7956 24 21 24H3C2.20435 24 1.44129 23.6839 0.87868 23.1213C0.316071 22.5587 0 21.7956 0 21V3ZM22.5 3C22.5 2.60218 22.342 2.22064 22.0607 1.93934C21.7794 1.65804 21.3978 1.5 21 1.5H3C2.60218 1.5 2.22064 1.65804 1.93934 1.93934C1.65804 2.22064 1.5 2.60218 1.5 3V21C1.5 21.3978 1.65804 21.7794 1.93934 22.0607C2.22064 22.342 2.60218 22.5 3 22.5H21C21.3978 22.5 21.7794 22.342 22.0607 22.0607C22.342 21.7794 22.5 21.3978 22.5 21V3Z"
              fill="#5E2EFF"/>
        <path d="M5.1 14.5286C5.1 14.1456 5.19466 13.7832 5.35754 13.5206C5.52081 13.2575 5.72983 13.1286 5.93061 13.1286H17.098C17.2987 13.1286 17.5078 13.2575 17.671 13.5206C17.8339 13.7832 17.9286 14.1456 17.9286 14.5286C17.9286 14.9116 17.8339 15.274 17.671 15.5365C17.5078 15.7997 17.2987 15.9286 17.098 15.9286H5.93061C5.72983 15.9286 5.52081 15.7997 5.35754 15.5365C5.19466 15.274 5.1 14.9116 5.1 14.5286Z"
              fill="#5E2EFF" stroke="#5E2EFF" stroke-width="0.2"/>
        <path d="M16.0785 14.6165L14.9745 15.4046L14.9632 13.8419L16.0785 14.6165Z" fill="white"/>
        <line x1="6.68942" y1="14.6" x2="13.7048" y2="14.6" stroke="white" stroke-width="2"/>
        <path d="M4.97144 9.55714C4.97144 9.15932 5.06927 8.77779 5.24341 8.49648C5.41755 8.21518 5.65373 8.05714 5.90001 8.05714H17.0429C17.2891 8.05714 17.5253 8.21518 17.6995 8.49648C17.8736 8.77779 17.9714 9.15932 17.9714 9.55714C17.9714 9.95497 17.8736 10.3365 17.6995 10.6178C17.5253 10.8991 17.2891 11.0571 17.0429 11.0571H5.90001C5.65373 11.0571 5.41755 10.8991 5.24341 10.6178C5.06927 10.3365 4.97144 9.95497 4.97144 9.55714Z"
              stroke="#5E2EFF" stroke-width="0.2"/>
        <path d="M15.8828 9.64507L14.7812 10.4332L14.77 8.87051L15.8828 9.64507Z" fill="#5E2EFF" fill-opacity="0.3"/>
        <line x1="6.5143" y1="9.62857" x2="13.5143" y2="9.62857" stroke="#5E2EFF" stroke-opacity="0.3"
              stroke-width="2"/>
    </g>
    <defs>
        <clipPath id="clip0_137_893">
            <rect width="24" height="24" fill="white"/>
        </clipPath>
    </defs>
</svg>
