<svg width="170" height="170" viewBox="0 0 170 170" fill="none" xmlns="http://www.w3.org/2000/svg">
<g clip-path="url(#clip0_307_1410)">
<path d="M0 21.25C0 15.6141 2.23883 10.2091 6.22398 6.22398C10.2091 2.23883 15.6141 0 21.25 0L148.75 0C154.386 0 159.791 2.23883 163.776 6.22398C167.761 10.2091 170 15.6141 170 21.25V148.75C170 154.386 167.761 159.791 163.776 163.776C159.791 167.761 154.386 170 148.75 170H21.25C15.6141 170 10.2091 167.761 6.22398 163.776C2.23883 159.791 0 154.386 0 148.75V21.25ZM159.375 21.25C159.375 18.4321 158.256 15.7296 156.263 13.737C154.27 11.7444 151.568 10.625 148.75 10.625H21.25C18.4321 10.625 15.7296 11.7444 13.737 13.737C11.7444 15.7296 10.625 18.4321 10.625 21.25V148.75C10.625 151.568 11.7444 154.27 13.737 156.263C15.7296 158.256 18.4321 159.375 21.25 159.375H148.75C151.568 159.375 154.27 158.256 156.263 156.263C158.256 154.27 159.375 151.568 159.375 148.75V21.25Z" fill="#5E2EFF"/>
<path d="M35.5167 103.214C35.5167 100.33 36.208 97.5692 37.433 95.5383C38.6586 93.5064 40.3077 92.3857 42.0085 92.3857H121.111C122.811 92.3857 124.46 93.5064 125.686 95.5383C126.911 97.5692 127.602 100.33 127.602 103.214C127.602 106.098 126.911 108.859 125.686 110.89C124.46 112.922 122.811 114.043 121.111 114.043H42.0085C40.3077 114.043 38.6586 112.922 37.433 110.89C36.208 108.859 35.5167 106.098 35.5167 103.214Z" fill="#5E2EFF" stroke="#5E2EFF" stroke-width="0.2"/>
<path d="M114.195 103.214L105.134 109.579L105.043 96.9603L114.195 103.214Z" fill="white"/>
<path d="M46 103H96" stroke="white" stroke-width="12"/>
<path d="M35.2143 67.6964C35.2143 64.8785 35.9073 62.176 37.1408 60.1834C38.3743 58.1908 40.0472 57.0714 41.7917 57.0714H120.72C122.465 57.0714 124.138 58.1908 125.371 60.1834C126.605 62.176 127.298 64.8785 127.298 67.6964C127.298 70.5143 126.605 73.2169 125.371 75.2094C124.138 77.202 122.465 78.3214 120.72 78.3214H41.7917C40.0472 78.3214 38.3743 77.202 37.1408 75.2094C35.9073 73.2169 35.2143 70.5143 35.2143 67.6964Z" stroke="#5E2EFF"/>
<path d="M112.981 67.9998L103.919 74.3648L103.828 61.7459L112.981 67.9998Z" fill="#5E2EFF" fill-opacity="0.3"/>
<path d="M46 68H71H96" stroke="#5E2EFF" stroke-opacity="0.3" stroke-width="12"/>
</g>
<defs>
<clipPath id="clip0_307_1410">
<rect width="170" height="170" fill="white"/>
</clipPath>
</defs>
</svg>
