<svg width="24" height="24" viewBox="0 0 24 24" fill="none" xmlns="http://www.w3.org/2000/svg">
    <g clip-path="url(#clip0_137_884)">
        <path d="M0 3C0 2.20435 0.316071 1.44129 0.87868 0.87868C1.44129 0.316071 2.20435 0 3 0L21 0C21.7957 0 22.5587 0.316071 23.1213 0.87868C23.6839 1.44129 24 2.20435 24 3V21C24 21.7957 23.6839 22.5587 23.1213 23.1213C22.5587 23.6839 21.7957 24 21 24H3C2.20435 24 1.44129 23.6839 0.87868 23.1213C0.316071 22.5587 0 21.7957 0 21V3ZM22.5 3C22.5 2.60218 22.342 2.22064 22.0607 1.93934C21.7794 1.65804 21.3978 1.5 21 1.5H3C2.60218 1.5 2.22064 1.65804 1.93934 1.93934C1.65804 2.22064 1.5 2.60218 1.5 3V21C1.5 21.3978 1.65804 21.7794 1.93934 22.0607C2.22064 22.342 2.60218 22.5 3 22.5H21C21.3978 22.5 21.7794 22.342 22.0607 22.0607C22.342 21.7794 22.5 21.3978 22.5 21V3Z"
              fill="#5E2EFF"/>
        <path d="M16 19.5H21" stroke="#5E2EFF" stroke-opacity="0.3"/>
        <path d="M16 3.99998H18.2222H21" stroke="#5E2EFF" stroke-opacity="0.3"/>
        <line x1="18.5" y1="3.99998" x2="18.5" y2="19" stroke="#5E2EFF" stroke-opacity="0.3"/>
        <path opacity="0.3" d="M5 6.28906V5H15V6.28906H10.8073V17H9.19271V6.28906H5Z" fill="#5E2EFF"/>
    </g>
    <defs>
        <clipPath id="clip0_137_884">
            <rect width="24" height="24" fill="white"/>
        </clipPath>
    </defs>
</svg>
