<svg width="170" height="170" viewBox="0 0 170 170" fill="none" xmlns="http://www.w3.org/2000/svg">
<g clip-path="url(#clip0_307_1281)">
<path d="M0 21.25C0 15.6141 2.23883 10.2091 6.22398 6.22398C10.2091 2.23883 15.6141 0 21.25 0L148.75 0C154.386 0 159.791 2.23883 163.776 6.22398C167.761 10.2091 170 15.6141 170 21.25V148.75C170 154.386 167.761 159.791 163.776 163.776C159.791 167.761 154.386 170 148.75 170H21.25C15.6141 170 10.2091 167.761 6.22398 163.776C2.23883 159.791 0 154.386 0 148.75V21.25ZM159.375 21.25C159.375 18.4321 158.256 15.7296 156.263 13.737C154.27 11.7444 151.568 10.625 148.75 10.625H21.25C18.4321 10.625 15.7296 11.7444 13.737 13.737C11.7444 15.7296 10.625 18.4321 10.625 21.25V148.75C10.625 151.568 11.7444 154.27 13.737 156.263C15.7296 158.256 18.4321 159.375 21.25 159.375H148.75C151.568 159.375 154.27 158.256 156.263 156.263C158.256 154.27 159.375 151.568 159.375 148.75V21.25Z" fill="#5E2EFF"/>
<g clip-path="url(#clip1_307_1281)">
<path d="M41.25 52.675C46.7812 50.3625 54.7125 47.8687 62.425 47.0937C70.7375 46.2562 77.7875 47.4875 81.875 51.7937V112.706C76.0312 109.394 68.625 108.937 61.7938 109.625C54.4188 110.375 46.9812 112.506 41.25 114.694V52.675ZM88.125 51.7937C92.2125 47.4875 99.2625 46.2562 107.575 47.0937C115.288 47.8687 123.219 50.3625 128.75 52.675V114.694C123.013 112.506 115.581 110.369 108.206 109.631C101.369 108.937 93.9688 109.387 88.125 112.706V51.7937ZM85 46.1437C78.8437 40.85 69.9188 40.0625 61.7938 40.875C52.3313 41.8312 42.7813 45.075 36.8313 47.7812C36.2853 48.0295 35.8223 48.4297 35.4976 48.9339C35.1729 49.4382 35.0002 50.0252 35 50.625V119.375C35.0001 119.898 35.1315 120.412 35.382 120.871C35.6325 121.33 35.9941 121.719 36.4338 122.002C36.8735 122.285 37.3772 122.453 37.8986 122.491C38.4201 122.529 38.9428 122.435 39.4188 122.219C44.9313 119.719 53.8125 116.712 62.4188 115.844C71.225 114.956 78.6063 116.387 82.5625 121.325C82.8553 121.69 83.2264 121.985 83.6482 122.187C84.0701 122.389 84.5321 122.494 85 122.494C85.4679 122.494 85.9299 122.389 86.3518 122.187C86.7736 121.985 87.1447 121.69 87.4375 121.325C91.3938 116.387 98.775 114.956 107.575 115.844C116.188 116.712 125.075 119.719 130.581 122.219C131.057 122.435 131.58 122.529 132.101 122.491C132.623 122.453 133.126 122.285 133.566 122.002C134.006 121.719 134.368 121.33 134.618 120.871C134.869 120.412 135 119.898 135 119.375V50.625C135 50.0252 134.827 49.4382 134.502 48.9339C134.178 48.4297 133.715 48.0295 133.169 47.7812C127.219 45.075 117.669 41.8312 108.206 40.875C100.081 40.0562 91.1563 40.85 85 46.1437Z" fill="#5E2EFF" fill-opacity="0.7"/>
</g>
</g>
<defs>
<clipPath id="clip0_307_1281">
<rect width="170" height="170" fill="white"/>
</clipPath>
<clipPath id="clip1_307_1281">
<rect width="100" height="100" fill="white" transform="translate(35 35)"/>
</clipPath>
</defs>
</svg>
