<svg width="170" height="170" viewBox="0 0 170 170" fill="none" xmlns="http://www.w3.org/2000/svg">
<g clip-path="url(#clip0_307_1296)">
<path d="M0 21.25C0 15.6141 2.23883 10.2091 6.22398 6.22398C10.2091 2.23883 15.6141 0 21.25 0L148.75 0C154.386 0 159.791 2.23883 163.776 6.22398C167.761 10.2091 170 15.6141 170 21.25V148.75C170 154.386 167.761 159.791 163.776 163.776C159.791 167.761 154.386 170 148.75 170H21.25C15.6141 170 10.2091 167.761 6.22398 163.776C2.23883 159.791 0 154.386 0 148.75V21.25ZM159.375 21.25C159.375 18.4321 158.256 15.7296 156.263 13.737C154.27 11.7444 151.568 10.625 148.75 10.625H21.25C18.4321 10.625 15.7296 11.7444 13.737 13.737C11.7444 15.7296 10.625 18.4321 10.625 21.25V148.75C10.625 151.568 11.7444 154.27 13.737 156.263C15.7296 158.256 18.4321 159.375 21.25 159.375H148.75C151.568 159.375 154.27 158.256 156.263 156.263C158.256 154.27 159.375 151.568 159.375 148.75V21.25Z" fill="#5E2EFF"/>
<path d="M45 48.3333C41.3167 48.3333 38.3334 51.3167 38.3334 55V101.667C38.3334 105.35 41.3167 108.333 45 108.333H48.3334V65C48.3334 61.3167 51.3167 58.3333 55 58.3333H115V55C115 51.3167 112.017 48.3333 108.333 48.3333H45ZM61.6667 65C57.9834 65 55 67.9833 55 71.6667V115C55 118.683 57.9834 121.667 61.6667 121.667H125C128.683 121.667 131.667 118.683 131.667 115V71.6667C131.667 67.9833 128.683 65 125 65H61.6667Z" fill="#5E2EFF" fill-opacity="0.3"/>
</g>
<defs>
<clipPath id="clip0_307_1296">
<rect width="170" height="170" fill="white"/>
</clipPath>
</defs>
</svg>
