<svg width="24" height="24" viewBox="0 0 24 24" fill="none" xmlns="http://www.w3.org/2000/svg">
    <g clip-path="url(#clip0_137_905)">
        <path d="M0 3C0 2.20435 0.316071 1.44129 0.87868 0.87868C1.44129 0.316071 2.20435 0 3 0L21 0C21.7956 0 22.5587 0.316071 23.1213 0.87868C23.6839 1.44129 24 2.20435 24 3V21C24 21.7956 23.6839 22.5587 23.1213 23.1213C22.5587 23.6839 21.7956 24 21 24H3C2.20435 24 1.44129 23.6839 0.87868 23.1213C0.316071 22.5587 0 21.7956 0 21V3ZM22.5 3C22.5 2.60218 22.342 2.22064 22.0607 1.93934C21.7794 1.65804 21.3978 1.5 21 1.5H3C2.60218 1.5 2.22064 1.65804 1.93934 1.93934C1.65804 2.22064 1.5 2.60218 1.5 3V21C1.5 21.3978 1.65804 21.7794 1.93934 22.0607C2.22064 22.342 2.60218 22.5 3 22.5H21C21.3978 22.5 21.7794 22.342 22.0607 22.0607C22.342 21.7794 22.5 21.3978 22.5 21V3Z"
              fill="#5E2EFF"/>
        <path d="M18.2403 5.375C14.109 5.375 12.5781 8.32474 11.3471 10.6944L10.5429 12.2105C9.23945 14.7235 8.26557 16.2511 5.75582 16.2511C5.60001 16.2511 5.44572 16.2818 5.30177 16.3415C5.15782 16.4011 5.027 16.4885 4.91683 16.5986C4.80665 16.7088 4.71921 16.8396 4.65959 16.9836C4.59996 17.1275 4.56931 17.2818 4.56931 17.4376C4.56974 17.7522 4.6949 18.0537 4.91731 18.2761C5.13973 18.4985 5.44128 18.6237 5.75582 18.6241C9.88875 18.6241 11.4196 15.6744 12.6506 13.3047L13.4531 11.7886C14.7583 9.27557 15.7322 7.74798 18.2403 7.74798C18.3962 7.74819 18.5507 7.71766 18.6948 7.65813C18.8389 7.5986 18.9699 7.51125 19.0803 7.40105C19.1906 7.29085 19.2782 7.15998 19.3379 7.01592C19.3977 6.87186 19.4284 6.71744 19.4284 6.56149C19.4279 6.24666 19.3026 5.94488 19.0798 5.72242C18.857 5.49996 18.5551 5.375 18.2403 5.375Z"
              fill="#5E2EFF" fill-opacity="0.3"/>
    </g>
    <defs>
        <clipPath id="clip0_137_905">
            <rect width="24" height="24" fill="white"/>
        </clipPath>
    </defs>
</svg>
