<svg width="170" height="170" viewBox="0 0 170 170" fill="none" xmlns="http://www.w3.org/2000/svg">
<g clip-path="url(#clip0_307_1378)">
<path d="M0 21.25C0 15.6141 2.23883 10.2091 6.22398 6.22398C10.2091 2.23883 15.6141 0 21.25 0L148.75 0C154.386 0 159.791 2.23883 163.776 6.22398C167.761 10.2091 170 15.6141 170 21.25V148.75C170 154.386 167.761 159.791 163.776 163.776C159.791 167.761 154.386 170 148.75 170H21.25C15.6141 170 10.2091 167.761 6.22398 163.776C2.23883 159.791 0 154.386 0 148.75V21.25ZM159.375 21.25C159.375 18.4321 158.256 15.7296 156.263 13.737C154.27 11.7444 151.568 10.625 148.75 10.625H21.25C18.4321 10.625 15.7296 11.7444 13.737 13.737C11.7444 15.7296 10.625 18.4321 10.625 21.25V148.75C10.625 151.568 11.7444 154.27 13.737 156.263C15.7296 158.256 18.4321 159.375 21.25 159.375H148.75C151.568 159.375 154.27 158.256 156.263 156.263C158.256 154.27 159.375 151.568 159.375 148.75V21.25Z" fill="#5E2EFF"/>
<path d="M129.202 38.0729C99.9386 38.0729 89.0947 58.9669 80.3753 75.7522L74.6792 86.491C65.4461 104.292 58.5478 115.112 40.7705 115.112C39.6668 115.112 38.5739 115.33 37.5542 115.752C36.5346 116.174 35.608 116.793 34.8276 117.574C34.0472 118.354 33.4278 119.281 33.0055 120.3C32.5831 121.32 32.366 122.413 32.366 123.516C32.3691 125.744 33.2556 127.88 34.831 129.456C36.4064 131.031 38.5425 131.918 40.7705 131.921C70.0454 131.921 80.889 111.027 89.6085 94.2416L95.2932 83.5027C104.538 65.702 111.436 54.8815 129.202 54.8815C130.307 54.8831 131.401 54.6668 132.422 54.2451C133.443 53.8234 134.371 53.2047 135.152 52.4241C135.934 51.6435 136.554 50.7165 136.977 49.6961C137.4 48.6757 137.618 47.5819 137.618 46.4772C137.615 44.2472 136.727 42.1096 135.149 40.5338C133.571 38.958 131.432 38.0729 129.202 38.0729Z" fill="#5E2EFF"/>
</g>
<defs>
<clipPath id="clip0_307_1378">
<rect width="170" height="170" fill="white"/>
</clipPath>
</defs>
</svg>
