<svg width="170" height="170" viewBox="0 0 170 170" fill="none" xmlns="http://www.w3.org/2000/svg">
<g clip-path="url(#clip0_307_1301)">
<path d="M0 21.25C0 15.6141 2.23883 10.2091 6.22398 6.22398C10.2091 2.23883 15.6141 0 21.25 0L148.75 0C154.386 0 159.791 2.23883 163.776 6.22398C167.761 10.2091 170 15.6141 170 21.25V148.75C170 154.386 167.761 159.791 163.776 163.776C159.791 167.761 154.386 170 148.75 170H21.25C15.6141 170 10.2091 167.761 6.22398 163.776C2.23883 159.791 0 154.386 0 148.75V21.25ZM159.375 21.25C159.375 18.4321 158.256 15.7296 156.263 13.737C154.27 11.7444 151.568 10.625 148.75 10.625H21.25C18.4321 10.625 15.7296 11.7444 13.737 13.737C11.7444 15.7296 10.625 18.4321 10.625 21.25V148.75C10.625 151.568 11.7444 154.27 13.737 156.263C15.7296 158.256 18.4321 159.375 21.25 159.375H148.75C151.568 159.375 154.27 158.256 156.263 156.263C158.256 154.27 159.375 151.568 159.375 148.75V21.25Z" fill="#5E2EFF"/>
<path d="M35.3125 56.7188C35.9426 53.9578 37.4916 51.4926 39.7058 49.7269C41.9199 47.9613 44.668 46.9998 47.5 47H122.5C125.332 46.9998 128.08 47.9613 130.294 49.7269C132.508 51.4926 134.057 53.9578 134.688 56.7188L85 87.0875L35.3125 56.7188ZM35 63.8563V108.256L71.2687 86.0187L35 63.8563ZM77.2563 89.6875L36.1938 114.856C37.2083 116.996 38.8095 118.803 40.8111 120.067C42.8127 121.332 45.1323 122.002 47.5 122H122.5C124.867 122.001 127.186 121.329 129.186 120.063C131.187 118.797 132.787 116.989 133.8 114.85L92.7375 89.6813L85 94.4125L77.2563 89.6875ZM98.7312 86.025L135 108.256V63.8563L98.7312 86.0187V86.025Z" fill="#5E2EFF" fill-opacity="0.7"/>
</g>
<defs>
<clipPath id="clip0_307_1301">
<rect width="170" height="170" fill="white"/>
</clipPath>
</defs>
</svg>
