<svg width="170" height="170" viewBox="0 0 170 170" fill="none" xmlns="http://www.w3.org/2000/svg">
<g clip-path="url(#clip0_307_1306)">
<path d="M0 21.25C0 15.6141 2.23883 10.2091 6.22398 6.22398C10.2091 2.23883 15.6141 0 21.25 0L148.75 0C154.386 0 159.791 2.23883 163.776 6.22398C167.761 10.2091 170 15.6141 170 21.25V148.75C170 154.386 167.761 159.791 163.776 163.776C159.791 167.761 154.386 170 148.75 170H21.25C15.6141 170 10.2091 167.761 6.22398 163.776C2.23883 159.791 0 154.386 0 148.75V21.25ZM159.375 21.25C159.375 18.4321 158.256 15.7296 156.263 13.737C154.27 11.7444 151.568 10.625 148.75 10.625H21.25C18.4321 10.625 15.7296 11.7444 13.737 13.737C11.7444 15.7296 10.625 18.4321 10.625 21.25V148.75C10.625 151.568 11.7444 154.27 13.737 156.263C15.7296 158.256 18.4321 159.375 21.25 159.375H148.75C151.568 159.375 154.27 158.256 156.263 156.263C158.256 154.27 159.375 151.568 159.375 148.75V21.25Z" fill="#5E2EFF"/>
<path d="M70.7388 85.6942V92.8371H56.6763V85.6942H70.7388ZM70.7388 71.4643V78.5513H56.6763V71.4643H70.7388ZM113.038 99.9799V107.123H94.0089V99.9799H113.038ZM113.038 85.6942V92.8371H75.5379V85.6942H113.038ZM113.038 71.4643V78.5513H75.5379V71.4643H113.038ZM120.571 119.455V50.2589C120.571 49.9613 120.46 49.7009 120.237 49.4777C120.013 49.2545 119.753 49.1429 119.455 49.1429H117.67L96.5759 63.4286L84.8571 53.8862L73.1384 63.4286L52.0446 49.1429H50.2589C49.9613 49.1429 49.7009 49.2545 49.4777 49.4777C49.2545 49.7009 49.1429 49.9613 49.1429 50.2589V119.455C49.1429 119.753 49.2545 120.013 49.4777 120.237C49.7009 120.46 49.9613 120.571 50.2589 120.571H119.455C119.753 120.571 120.013 120.46 120.237 120.237C120.46 120.013 120.571 119.753 120.571 119.455ZM72.8594 57.5134L83.183 49.1429H60.5268L72.8594 57.5134ZM96.8549 57.5134L109.188 49.1429H86.5312L96.8549 57.5134ZM127.714 50.2589V119.455C127.714 121.762 126.914 123.715 125.315 125.315C123.715 126.914 121.762 127.714 119.455 127.714H50.2589C47.9524 127.714 45.9993 126.914 44.3996 125.315C42.7999 123.715 42 121.762 42 119.455V50.2589C42 47.9524 42.7999 45.9993 44.3996 44.3996C45.9993 42.7999 47.9524 42 50.2589 42H119.455C121.762 42 123.715 42.7999 125.315 44.3996C126.914 45.9993 127.714 47.9524 127.714 50.2589Z" fill="#5E2EFF" fill-opacity="0.7"/>
</g>
<defs>
<clipPath id="clip0_307_1306">
<rect width="170" height="170" fill="white"/>
</clipPath>
</defs>
</svg>
