<svg width="170" height="170" viewBox="0 0 170 170" fill="none" xmlns="http://www.w3.org/2000/svg">
<g clip-path="url(#clip0_307_1396)">
<path d="M0 21.25C0 15.6141 2.23883 10.2091 6.22398 6.22398C10.2091 2.23883 15.6141 0 21.25 0L148.75 0C154.386 0 159.791 2.23883 163.776 6.22398C167.761 10.2091 170 15.6141 170 21.25V148.75C170 154.386 167.761 159.791 163.776 163.776C159.791 167.761 154.386 170 148.75 170H21.25C15.6141 170 10.2091 167.761 6.22398 163.776C2.23883 159.791 0 154.386 0 148.75V21.25ZM159.375 21.25C159.375 18.4321 158.256 15.7296 156.263 13.737C154.27 11.7444 151.568 10.625 148.75 10.625H21.25C18.4321 10.625 15.7296 11.7444 13.737 13.737C11.7444 15.7296 10.625 18.4321 10.625 21.25V148.75C10.625 151.568 11.7444 154.27 13.737 156.263C15.7296 158.256 18.4321 159.375 21.25 159.375H148.75C151.568 159.375 154.27 158.256 156.263 156.263C158.256 154.27 159.375 151.568 159.375 148.75V21.25Z" fill="#5E2EFF"/>
<path fill-rule="evenodd" clip-rule="evenodd" d="M95.9169 83.0752C99.9124 77.7828 105.129 74.5658 110.77 73.5648C116.4 72.5656 122.399 73.7917 127.969 77.383C128.603 77.7918 129.222 78.2239 129.825 78.6784L131.732 80.1186L130.499 82.1647C129.776 83.3648 128.988 84.4924 128.141 85.5454C124.338 90.2727 119.555 93.1481 114.393 94.0643C109.237 94.9794 103.761 93.926 98.5665 90.7967C97.4406 90.1186 96.3144 89.3296 95.1939 88.4282L93.3336 86.9316L94.6233 84.9314C95.0458 84.276 95.4774 83.6572 95.9168 83.0751L95.9169 83.0752ZM135.183 99.5543C143.788 89.0414 148.75 73.789 148.75 59.9879V56.6667L145.513 57.4042C138.048 59.1048 129.954 59.2225 121.981 59.3383C108.511 59.5339 95.3672 59.7263 85.0001 67.1425C74.633 59.7263 61.4896 59.534 48.0195 59.3383C40.046 59.2225 31.9517 59.1048 24.4874 57.4042L21.25 56.6667V59.9879C21.25 73.789 26.2123 89.0415 34.817 99.5543C38.0764 103.537 41.8708 106.86 46.1345 109.202C50.4697 111.584 55.2632 112.941 60.4439 112.941C67.9558 112.941 76.2244 110.089 85.0001 103.353C93.7758 110.089 102.044 112.941 109.556 112.941C114.737 112.941 119.531 111.584 123.866 109.202C128.13 106.86 131.924 103.537 135.183 99.5543H135.183ZM59.2299 73.5649C64.8709 74.566 70.0875 77.7829 74.0831 83.0753C74.5225 83.6573 74.9541 84.2761 75.3766 84.9316L76.6663 86.9318L74.8059 88.4283C73.6855 89.3297 72.5592 90.1187 71.4334 90.7969C66.2389 93.9261 60.7627 94.9796 55.6066 94.0643C50.4449 93.1483 45.6616 90.2727 41.8591 85.5455C41.0122 84.4925 40.2234 83.3649 39.5004 82.1649L38.2678 80.1187L40.1749 78.6785C40.7773 78.224 41.3963 77.7919 42.0307 77.3832C47.6012 73.7918 53.5993 72.5657 59.2299 73.5649Z" fill="#5E2EFF"/>
</g>
<defs>
<clipPath id="clip0_307_1396">
<rect width="170" height="170" fill="white"/>
</clipPath>
</defs>
</svg>
