<svg width="24" height="24" viewBox="0 0 24 24" fill="none" xmlns="http://www.w3.org/2000/svg">
    <g clip-path="url(#clip0_137_770)">
        <path d="M0 3C0 2.20435 0.316071 1.44129 0.87868 0.87868C1.44129 0.316071 2.20435 0 3 0L21 0C21.7956 0 22.5587 0.316071 23.1213 0.87868C23.6839 1.44129 24 2.20435 24 3V21C24 21.7956 23.6839 22.5587 23.1213 23.1213C22.5587 23.6839 21.7956 24 21 24H3C2.20435 24 1.44129 23.6839 0.87868 23.1213C0.316071 22.5587 0 21.7956 0 21V3ZM22.5 3C22.5 2.60218 22.342 2.22064 22.0607 1.93934C21.7794 1.65804 21.3978 1.5 21 1.5H3C2.60218 1.5 2.22064 1.65804 1.93934 1.93934C1.65804 2.22064 1.5 2.60218 1.5 3V21C1.5 21.3978 1.65804 21.7794 1.93934 22.0607C2.22064 22.342 2.60218 22.5 3 22.5H21C21.3978 22.5 21.7794 22.342 22.0607 22.0607C22.342 21.7794 22.5 21.3978 22.5 21V3Z"
              fill="#5E2EFF"/>
        <path fill-rule="evenodd" clip-rule="evenodd"
              d="M13.5412 11.7283C14.1053 10.9811 14.8417 10.5269 15.6381 10.3856C16.433 10.2446 17.2798 10.4176 18.0662 10.9247C18.1558 10.9824 18.2432 11.0434 18.3282 11.1075L18.5975 11.3109L18.4234 11.5997C18.3214 11.7691 18.21 11.9283 18.0905 12.077C17.5536 12.7444 16.8784 13.1503 16.1496 13.2797C15.4217 13.4089 14.6486 13.2601 13.9153 12.8184C13.7563 12.7226 13.5973 12.6112 13.4391 12.484L13.1765 12.2727L13.3586 11.9903C13.4182 11.8978 13.4792 11.8104 13.5412 11.7282L13.5412 11.7283ZM19.0847 14.0547C20.2995 12.5706 21 10.4173 21 8.46888V8L20.543 8.10412C19.4892 8.3442 18.3465 8.36082 17.2208 8.37717C15.3191 8.40479 13.4636 8.43195 12 9.47894C10.5364 8.43195 8.68089 8.4048 6.77923 8.37717C5.65356 8.36082 4.51083 8.3442 3.45704 8.10412L3 8V8.46888C3 10.4173 3.70056 12.5706 4.91534 14.0547C5.3755 14.6169 5.91117 15.0861 6.51311 15.4168C7.12514 15.753 7.80186 15.9446 8.53325 15.9446C9.59377 15.9446 10.7611 15.542 12 14.591C13.2389 15.542 14.4063 15.9446 15.4668 15.9446C16.1982 15.9446 16.8749 15.753 17.4869 15.4168C18.0889 15.0862 18.6246 14.6169 19.0847 14.0547H19.0847ZM8.36187 10.3856C9.15825 10.527 9.8947 10.9811 10.4588 11.7283C10.5208 11.8104 10.5818 11.8978 10.6414 11.9903L10.8235 12.2727L10.5608 12.484C10.4027 12.6113 10.2437 12.7226 10.0847 12.8184C9.35138 13.2602 8.57827 13.4089 7.85034 13.2797C7.12164 13.1503 6.44634 12.7444 5.90952 12.077C5.78995 11.9284 5.6786 11.7692 5.57653 11.5998L5.40251 11.3109L5.67176 11.1076C5.7568 11.0434 5.84419 10.9824 5.93374 10.9247C6.72016 10.4177 7.56696 10.2446 8.36187 10.3856Z"
              fill="#5E2EFF" fill-opacity="0.3"/>
    </g>
    <defs>
        <clipPath id="clip0_137_770">
            <rect width="24" height="24" fill="white"/>
        </clipPath>
    </defs>
</svg>
