<svg width="170" height="170" viewBox="0 0 170 170" fill="none" xmlns="http://www.w3.org/2000/svg">
<g clip-path="url(#clip0_307_1389)">
<path d="M0 21.25C0 15.6141 2.23883 10.2091 6.22398 6.22398C10.2091 2.23883 15.6141 0 21.25 0L148.75 0C154.386 0 159.791 2.23883 163.776 6.22398C167.761 10.2091 170 15.6141 170 21.25V148.75C170 154.386 167.761 159.791 163.776 163.776C159.791 167.761 154.386 170 148.75 170H21.25C15.6141 170 10.2091 167.761 6.22398 163.776C2.23883 159.791 0 154.386 0 148.75V21.25ZM159.375 21.25C159.375 18.4321 158.256 15.7296 156.263 13.737C154.27 11.7444 151.568 10.625 148.75 10.625H21.25C18.4321 10.625 15.7296 11.7444 13.737 13.737C11.7444 15.7296 10.625 18.4321 10.625 21.25V148.75C10.625 151.568 11.7444 154.27 13.737 156.263C15.7296 158.256 18.4321 159.375 21.25 159.375H148.75C151.568 159.375 154.27 158.256 156.263 156.263C158.256 154.27 159.375 151.568 159.375 148.75V21.25Z" fill="#5E2EFF"/>
<line x1="14.1666" y1="82" x2="63.75" y2="82" stroke="#5E2EFF" stroke-width="6"/>
<line x1="106.25" y1="82" x2="155.833" y2="82" stroke="#5E2EFF" stroke-width="6"/>
<path d="M94.6476 74.7014C95.1315 74.2465 95.7753 73.9951 96.4434 74.0001C97.1114 74.0051 97.7514 74.2661 98.2282 74.7282C98.705 75.1902 98.9814 75.8171 98.9991 76.4765C99.0168 77.1359 98.7743 77.7764 98.3229 78.2626L84.618 95.187C84.3823 95.4376 84.0979 95.6388 83.7817 95.7784C83.4655 95.918 83.1241 95.9932 82.7778 95.9996C82.4315 96.0059 82.0875 95.9432 81.7663 95.8152C81.4451 95.6873 81.1533 95.4967 80.9084 95.2548L71.8199 86.2805C71.5668 86.0476 71.3638 85.7668 71.223 85.4548C71.0822 85.1427 71.0065 84.8059 71.0004 84.4644C70.9943 84.1228 71.0579 83.7835 71.1875 83.4668C71.3171 83.1501 71.5099 82.8623 71.7545 82.6208C71.9991 82.3792 72.2905 82.1888 72.6113 82.0609C72.9321 81.9329 73.2757 81.8701 73.6215 81.8761C73.9674 81.8822 74.3086 81.9569 74.6246 82.096C74.9406 82.235 75.225 82.4354 75.4608 82.6854L82.6533 89.7841L94.5824 74.776C94.6038 74.7499 94.6233 74.725 94.6476 74.7014Z" fill="#5E2EFF" fill-opacity="0.3"/>
</g>
<defs>
<clipPath id="clip0_307_1389">
<rect width="170" height="170" fill="white"/>
</clipPath>
</defs>
</svg>
