<svg width="24" height="24" viewBox="0 0 24 24" fill="none" xmlns="http://www.w3.org/2000/svg">
    <g clip-path="url(#clip0_137_868)">
        <path d="M0 3C0 2.20435 0.316071 1.44129 0.87868 0.87868C1.44129 0.316071 2.20435 0 3 0L21 0C21.7956 0 22.5587 0.316071 23.1213 0.87868C23.6839 1.44129 24 2.20435 24 3V21C24 21.7956 23.6839 22.5587 23.1213 23.1213C22.5587 23.6839 21.7956 24 21 24H3C2.20435 24 1.44129 23.6839 0.87868 23.1213C0.316071 22.5587 0 21.7956 0 21V3ZM22.5 3C22.5 2.60218 22.342 2.22064 22.0607 1.93934C21.7794 1.65804 21.3978 1.5 21 1.5H3C2.60218 1.5 2.22064 1.65804 1.93934 1.93934C1.65804 2.22064 1.5 2.60218 1.5 3V21C1.5 21.3978 1.65804 21.7794 1.93934 22.0607C2.22064 22.342 2.60218 22.5 3 22.5H21C21.3978 22.5 21.7794 22.342 22.0607 22.0607C22.342 21.7794 22.5 21.3978 22.5 21V3Z"
              fill="#5E2EFF"/>
        <line x1="2" y1="11.5" x2="9" y2="11.5" stroke="#5E2EFF"/>
        <line x1="15" y1="11.5" x2="22" y2="11.5" stroke="#5E2EFF"/>
        <path d="M13.3782 10.0956C13.4474 10.0336 13.5393 9.99933 13.6348 10C13.7302 10.0007 13.8216 10.0363 13.8897 10.0993C13.9579 10.1623 13.9973 10.2478 13.9999 10.3377C14.0024 10.4276 13.9678 10.515 13.9033 10.5813L11.9454 12.8891C11.9118 12.9233 11.8711 12.9507 11.826 12.9698C11.7808 12.9888 11.732 12.9991 11.6825 12.9999C11.6331 13.0008 11.5839 12.9923 11.538 12.9748C11.4922 12.9574 11.4505 12.9314 11.4155 12.8984L10.1171 11.6746C10.081 11.6429 10.052 11.6046 10.0319 11.562C10.0117 11.5195 10.0009 11.4735 10.0001 11.427C9.99919 11.3804 10.0083 11.3341 10.0268 11.2909C10.0453 11.2477 10.0728 11.2085 10.1078 11.1756C10.1427 11.1426 10.1844 11.1167 10.2302 11.0992C10.276 11.0818 10.3251 11.0732 10.3745 11.074C10.4239 11.0748 10.4727 11.085 10.5178 11.104C10.5629 11.123 10.6036 11.1503 10.6373 11.1844L11.6648 12.1524L13.3689 10.1058C13.372 10.1023 13.3748 10.0989 13.3782 10.0956Z"
              fill="#5E2EFF" fill-opacity="0.3"/>
    </g>
    <defs>
        <clipPath id="clip0_137_868">
            <rect width="24" height="24" fill="white"/>
        </clipPath>
    </defs>
</svg>
