<svg width="114" height="114" viewBox="0 0 114 114" fill="none" xmlns="http://www.w3.org/2000/svg">
<path d="M85.9811 7.93187C99.4057 17.1417 109.397 29.2944 112.852 45.6155C114.729 60.8018 112.557 76.4243 103.294 88.9944C102.282 90.2308 101.261 91.4603 100.231 92.6819C99.8045 93.2632 99.3778 93.8446 98.9382 94.4436C90.8326 105.021 78.0934 110.538 65.2311 112.682C52.6913 113.78 52.6913 113.78 48.4811 110.369C45.7244 107.077 45.1022 104.833 45.1335 100.67C45.1367 99.9128 45.1399 99.1555 45.1433 98.3752C45.1558 97.1967 45.1558 97.1967 45.1686 95.9944C45.1732 95.1971 45.1777 94.3998 45.1823 93.5784C45.1941 91.6128 45.212 89.6473 45.2311 87.6819C46.1228 87.9187 46.1228 87.9187 47.0324 88.1604C57.3658 90.6112 66.1453 88.8903 75.1921 83.7952C82.9821 78.3782 87.091 70.8379 89.2311 61.6819C90.5287 52.1176 87.9156 44.3177 82.5436 36.4319C77.7863 30.4821 71.5455 26.667 64.2311 24.6819C53.6111 23.5044 45.1335 24.294 36.2311 30.6819C33.4701 33.1172 31.3015 35.643 29.2311 38.6819C28.8225 39.2748 28.4139 39.8678 27.9929 40.4787C25.4531 44.801 24.8666 48.8481 24.2936 53.8069C23.5854 59.7604 22.7459 62.7314 18.2311 66.6819C14.7442 68.4254 11.0352 68.2627 7.23115 67.6819C3.65491 65.7681 1.53353 63.589 0.23115 59.6819C-1.15304 45.3861 3.77491 32.0557 12.4538 20.7991C30.6216 -0.334318 61.6784 -6.69663 85.9811 7.93187Z" fill="#FDFBFC"/>
<path d="M62.2312 45.6813C65.0476 47.6226 66.725 49.6033 68.2312 52.6813C68.9548 57.672 68.7993 62.5953 68.6062 67.6188C68.5761 68.984 68.5487 70.3492 68.5242 71.7145C68.4537 75.0384 68.3552 78.359 68.2312 81.6813C64.0068 83.4979 60.7923 83.9511 56.1687 83.9313C54.9608 83.9364 53.753 83.9416 52.5085 83.9469C49.3825 83.6936 47.9063 83.1467 45.2312 81.6813C45.1568 77.6429 45.1025 73.6047 45.0664 69.5658C45.0514 68.1933 45.0309 66.8209 45.0049 65.4486C44.9683 63.4704 44.953 61.4918 44.9382 59.5133C44.9147 57.7302 44.9147 57.7302 44.8906 55.911C45.369 51.3742 46.9697 48.7943 50.3562 45.8063C54.4235 44.2147 58.1662 43.9592 62.2312 45.6813Z" fill="#FCFAFB"/>
</svg>
