<svg width="114" height="114" viewBox="0 0 114 114" fill="none" xmlns="http://www.w3.org/2000/svg">
<path d="M88.9996 9.9999C92.5389 12.8108 95.8022 15.8081 98.9996 18.9999C99.5758 19.5645 100.152 20.1291 100.746 20.7108C110.116 30.69 113.364 43.2045 113.25 56.4999C113.261 57.8476 113.261 57.8476 113.273 59.2226C113.231 73.6679 107.319 86.5088 97.3121 96.8202C86.3797 107.125 74.4333 112.962 59.3121 113.437C57.4191 113.497 57.4191 113.497 55.4879 113.558C51.0867 112.854 49.7399 111.441 46.9996 108C45.1495 104.919 44.7408 102.629 44.7091 99.0512C44.6963 98.0698 44.6836 97.0884 44.6704 96.0773C44.6682 95.0231 44.666 93.9689 44.6637 92.8827C44.657 91.7928 44.6504 90.7029 44.6435 89.5799C44.6334 87.2751 44.6287 84.9703 44.629 82.6654C44.6247 79.1449 44.5883 75.6257 44.5504 72.1054C44.5445 69.8645 44.5406 67.6236 44.5387 65.3827C44.5243 64.3325 44.5099 63.2824 44.4951 62.2004C44.5329 56.1421 44.9429 52.6042 48.9996 47.9999C51.7398 45.8366 53.4861 45.0764 56.9371 44.5624C61.6951 45.2421 64.7478 47.3528 67.6434 51.1627C69.3363 54.7041 69.476 57.8589 69.5113 61.7069C69.5293 62.4323 69.5472 63.1577 69.5657 63.9051C69.6197 66.2075 69.6537 68.5096 69.6871 70.8124C69.7203 72.3795 69.7548 73.9465 69.7906 75.5136C69.8754 79.3422 69.9423 83.1708 69.9996 86.9999C78.503 81.9335 84.9456 76.5203 88.3317 66.8944C90.634 56.9176 89.7331 48.3318 84.6363 39.4569C80.0034 32.502 72.9484 27.5887 64.9996 24.9999C53.1276 23.6476 44.6147 25.3518 34.8824 32.5702C28.3837 38.3438 24.9632 46.2194 24.4371 54.8124C24.3694 56.1659 24.3694 56.1659 24.3004 57.5468C23.838 61.3183 22.4775 63.1576 19.9996 65.9999C15.7737 68.8172 11.9634 68.7995 6.99963 67.9999C4.17538 65.8097 2.58454 64.1697 0.999626 60.9999C-0.337386 45.2845 4.13233 31.3708 14.2887 19.2733C34.4568 -1.91918 64.3121 -6.55616 88.9996 9.9999Z" fill="url(#paint0_linear_401_140125)"/>
<path d="M60 45.0004C64.4232 47.3421 66.8503 49.5032 69 54.0004C69.3177 56.6429 69.4875 59.0649 69.5117 61.7074C69.5386 62.7955 69.5386 62.7955 69.5661 63.9056C69.62 66.208 69.6541 68.5101 69.6875 70.8129C69.7207 72.38 69.7552 73.947 69.791 75.5141C69.8757 79.3427 69.9426 83.1713 70 87.0004C74.52 84.3456 66.631 91.0484 69.9993 86.951C69.4162 87.6456 70.5652 86.2768 69.9993 86.951C71.4069 85.2165 69.0525 88.5351 69.9925 86.5C70.9825 86.5 68.771 87.6254 69.791 87.6254C68.041 93.3754 72.041 85.3754 69.791 87.6254C69.0935 88.9429 70.1421 86.8413 69.5117 88.1921C68.5217 87.6971 70.5217 88.6971 69.5117 88.1921C66.2877 89.8617 70.2749 84.2273 69.8115 87.1828C69.6568 88.3584 69.9488 86.9928 69.791 88.1921C68.801 88.1921 71.0892 88.7503 70.0692 88.7503C69.4092 89.4103 70.0981 88.32 69.4181 89C69.4181 88.34 69.8115 89.9311 69.8115 89.2511C67.9552 89.4986 70.1438 90.2479 68.25 90.5004C63.3445 91.0688 57.9308 91.1592 53.0007 91C50.1486 90.9079 50.5007 91.4996 48.0007 91C45.9997 91 45.9997 91 46.5007 91C46.5142 91.7064 45.9867 90.2722 46.0007 91C46.036 92.7451 45.4427 89.2555 45.5 91C44.84 90.67 45.68 91.34 45 91C44.0325 88.0976 44.7373 90.8289 45.5 91C45.4872 90.0186 45.0132 92.5112 45 91.5C44.9926 90.4406 44.528 92.0915 44.5204 91C44.5123 89.9087 44.7249 90.195 44.5 89.5C45 87.5 44.5819 84.3108 44.574 82C44.5568 78.4707 44.4016 75.3453 44.5005 72C44.4016 69.8453 44.581 67.6638 44.5742 65.4184C44.5567 64.365 44.5392 63.3117 44.5212 62.2265C44.5391 56.1539 44.9281 52.613 49 48.0004C52.6661 45.1061 55.3631 44.338 60 45.0004Z" fill="url(#paint1_linear_401_140125)"/>
<defs>
<linearGradient id="paint0_linear_401_140125" x1="57.0208" y1="0.00390625" x2="57.0208" y2="113.558" gradientUnits="userSpaceOnUse">
<stop stop-color="#5E2EFF" stop-opacity="0.85"/>
<stop offset="1" stop-color="#3D04FA"/>
</linearGradient>
<linearGradient id="paint1_linear_401_140125" x1="57.9785" y1="44.7783" x2="57.9785" y2="93.6602" gradientUnits="userSpaceOnUse">
<stop stop-color="#5E2EFF" stop-opacity="0.83"/>
<stop offset="1" stop-color="#3B08E8"/>
</linearGradient>
</defs>
</svg>
