<svg width="170" height="170" fill="none" viewBox="0 0 170 170" xmlns="http://www.w3.org/2000/svg"><g fill="#5E2EFF" clip-path="url(#prefix__a)"><path d="M0 21.25A21.25 21.25 0 0 1 21.25 0h127.5A21.25 21.25 0 0 1 170 21.25v127.5A21.25 21.25 0 0 1 148.75 170H21.25A21.25 21.25 0 0 1 0 148.75V21.25Zm159.375 0a10.623 10.623 0 0 0-10.625-10.625H21.25A10.625 10.625 0 0 0 10.625 21.25v127.5a10.625 10.625 0 0 0 10.625 10.625h127.5a10.624 10.624 0 0 0 10.625-10.625V21.25Z"/><path d="m83.78 48.72-5.892 5.892L108.275 85l-30.388 30.387 5.892 5.892L120.058 85 83.779 48.72Z"/><path d="m58.78 48.72-5.892 5.892L83.275 85l-30.388 30.387 5.892 5.892L95.06 85 58.78 48.72Z"/></g><defs><clipPath id="prefix__a"><path fill="#fff" d="M0 0h170v170H0z"/></clipPath></defs></svg>