<svg width="170" height="170" viewBox="0 0 170 170" fill="none" xmlns="http://www.w3.org/2000/svg"><g fill="#5E2EFF" clip-path="url(#a)"><path d="M0 21.25A21.25 21.25 0 0 1 21.25 0h127.5A21.25 21.25 0 0 1 170 21.25v127.5A21.25 21.25 0 0 1 148.75 170H21.25A21.25 21.25 0 0 1 0 148.75V21.25Zm159.375 0a10.623 10.623 0 0 0-10.625-10.625H21.25A10.625 10.625 0 0 0 10.625 21.25v127.5a10.625 10.625 0 0 0 10.625 10.625h127.5a10.624 10.624 0 0 0 10.625-10.625V21.25Z"/><path fill-opacity=".7" d="M35.313 56.719A12.5 12.5 0 0 1 47.5 47h75a12.5 12.5 0 0 1 12.188 9.719L85 87.088l-49.688-30.37ZM35 63.856v44.4l36.269-22.237L35 63.856Zm42.256 25.831-41.062 25.169A12.5 12.5 0 0 0 47.5 122h75a12.5 12.5 0 0 0 11.3-7.15L92.737 89.681 85 94.412l-7.744-4.725Zm21.475-3.662L135 108.256v-44.4L98.731 86.02v.006Z"/></g><defs><clipPath id="a"><path fill="#fff" d="M0 0h170v170H0z"/></clipPath></defs></svg>