<svg xmlns:xlink="http://www.w3.org/1999/xlink" width="170" height="170" fill="none" viewBox="0 0 170 170" xmlns="http://www.w3.org/2000/svg"><defs><path id="prefix__b" fill="#fff" d="M0 0h170v170H0z"/></defs><g clip-path="url(#prefix__a)"><use xlink:href="#prefix__b"/><path fill="#5E2EFF" d="M0 21.25A21.25 21.25 0 0 1 21.25 0h127.5A21.25 21.25 0 0 1 170 21.25v127.5A21.25 21.25 0 0 1 148.75 170H21.25A21.25 21.25 0 0 1 0 148.75V21.25Zm159.375 0a10.623 10.623 0 0 0-10.625-10.625H21.25A10.625 10.625 0 0 0 10.625 21.25v127.5a10.625 10.625 0 0 0 10.625 10.625h127.5a10.624 10.624 0 0 0 10.625-10.625V21.25Z"/><g clip-path="url(#prefix__c)"><path fill="#5E2EFF" fill-opacity=".7" d="M112.85 35h-55.7A22.15 22.15 0 0 0 35 57.15v55.7A22.149 22.149 0 0 0 57.15 135h55.7A22.148 22.148 0 0 0 135 112.85v-55.7A22.15 22.15 0 0 0 112.85 35ZM99.1 105a11.8 11.8 0 0 1-8.3 3.4H67.5a11.547 11.547 0 0 1 3.4-8.4 11.8 11.8 0 0 1 8.3-3.4h23.3a11.706 11.706 0 0 1-3.4 8.4Zm16.5-17.3a11.8 11.8 0 0 1-8.3 3.4H51.05a11.25 11.25 0 0 1 3.4-8.2 11.8 11.8 0 0 1 8.3-3.4h56.2a11.24 11.24 0 0 1-3.35 8.15v.05Zm0-18.65a11.8 11.8 0 0 1-8.3 3.4H51.05a11.25 11.25 0 0 1 3.4-8.2 11.8 11.8 0 0 1 8.3-3.4h56.2a11.24 11.24 0 0 1-3.35 8.2Z"/></g></g><defs><clipPath id="prefix__a"><use xlink:href="#prefix__b"/></clipPath><clipPath id="prefix__c"><path fill="#fff" d="M0 0h100v100H0z" transform="translate(35 35)"/></clipPath></defs></svg>