<svg width="170" height="170" fill="none" viewBox="0 0 170 170" xmlns="http://www.w3.org/2000/svg"><g clip-path="url(#prefix__a)"><path fill="#5E2EFF" d="M0 21.25A21.25 21.25 0 0 1 21.25 0h127.5A21.25 21.25 0 0 1 170 21.25v127.5A21.25 21.25 0 0 1 148.75 170H21.25A21.25 21.25 0 0 1 0 148.75V21.25Zm159.375 0a10.623 10.623 0 0 0-10.625-10.625H21.25A10.625 10.625 0 0 0 10.625 21.25v127.5a10.625 10.625 0 0 0 10.625 10.625h127.5a10.624 10.624 0 0 0 10.625-10.625V21.25Z"/><path fill="url(#prefix__b)" d="M46 44.957V34h79v10.957H91.878V136H79.122V44.957H46Z"/></g><defs><linearGradient id="prefix__b" x1="79.5" x2="85.5" y1="37.5" y2="136" gradientUnits="userSpaceOnUse"><stop stop-color="#5E2EFF"/><stop offset=".458" stop-color="#2E5CFF" stop-opacity=".5"/><stop offset="1" stop-color="#5E2EFF"/></linearGradient><clipPath id="prefix__a"><path fill="#fff" d="M0 0h170v170H0z"/></clipPath></defs></svg>