<svg width="170" height="170" viewBox="0 0 170 170" fill="none" xmlns="http://www.w3.org/2000/svg"><g fill="#5E2EFF" clip-path="url(#a)"><path d="M0 21.25A21.25 21.25 0 0 1 21.25 0h127.5A21.25 21.25 0 0 1 170 21.25v127.5A21.25 21.25 0 0 1 148.75 170H21.25A21.25 21.25 0 0 1 0 148.75V21.25Zm159.375 0a10.623 10.623 0 0 0-10.625-10.625H21.25A10.625 10.625 0 0 0 10.625 21.25v127.5a10.625 10.625 0 0 0 10.625 10.625h127.5a10.624 10.624 0 0 0 10.625-10.625V21.25Z"/><path fill-rule="evenodd" d="M95.917 83.075c3.995-5.292 9.212-8.51 14.853-9.51 5.63-1 11.629.227 17.199 3.818.634.409 1.253.84 1.856 1.295l1.907 1.44-1.233 2.047a30.502 30.502 0 0 1-2.358 3.38c-3.803 4.728-8.586 7.603-13.748 8.52-5.156.914-10.632-.139-15.826-3.268a30.483 30.483 0 0 1-3.373-2.369l-1.86-1.496 1.29-2c.422-.656.853-1.275 1.293-1.857Zm39.266 16.48c8.605-10.514 13.567-25.766 13.567-39.567v-3.321l-3.237.737c-7.465 1.7-15.559 1.818-23.532 1.934-13.47.196-26.614.388-36.98 7.804-10.368-7.416-23.511-7.608-36.982-7.804-7.973-.116-16.067-.233-23.532-1.934l-3.237-.737v3.32c0 13.802 4.962 29.054 13.567 39.567 3.26 3.983 7.054 7.306 11.318 9.648 4.335 2.382 9.128 3.739 14.309 3.739 7.512 0 15.78-2.852 24.556-9.588 8.776 6.736 17.044 9.588 24.556 9.588 5.181 0 9.975-1.357 14.31-3.739 4.264-2.342 8.058-5.665 11.317-9.648ZM59.23 73.564c5.64 1.001 10.858 4.218 14.853 9.51.44.582.871 1.201 1.294 1.857l1.29 2-1.861 1.496a30.497 30.497 0 0 1-3.373 2.369c-5.194 3.13-10.67 4.183-15.826 3.267-5.162-.916-9.945-3.791-13.748-8.518a30.529 30.529 0 0 1-2.359-3.381l-1.232-2.046 1.907-1.44a30.567 30.567 0 0 1 1.856-1.296c5.57-3.591 11.568-4.817 17.199-3.818Z" clip-rule="evenodd"/></g><defs><clipPath id="a"><path fill="#fff" d="M0 0h170v170H0z"/></clipPath></defs></svg>