<svg width="170" height="170" viewBox="0 0 170 170" fill="none" xmlns="http://www.w3.org/2000/svg"><g fill="#5E2EFF" clip-path="url(#a)"><path d="M0 21.25A21.25 21.25 0 0 1 21.25 0h127.5A21.25 21.25 0 0 1 170 21.25v127.5A21.25 21.25 0 0 1 148.75 170H21.25A21.25 21.25 0 0 1 0 148.75V21.25Zm159.375 0a10.623 10.623 0 0 0-10.625-10.625H21.25A10.625 10.625 0 0 0 10.625 21.25v127.5a10.625 10.625 0 0 0 10.625 10.625h127.5a10.624 10.624 0 0 0 10.625-10.625V21.25Z"/><path d="M129.202 38.073c-29.263 0-40.107 20.894-48.827 37.68L74.68 86.49c-9.233 17.801-16.131 28.621-33.909 28.621a8.412 8.412 0 0 0-7.765 5.188 8.406 8.406 0 0 0-.639 3.216 8.419 8.419 0 0 0 8.404 8.405c29.275 0 40.119-20.894 48.839-37.68l5.684-10.738c9.245-17.801 16.143-28.621 33.909-28.621a8.402 8.402 0 0 0 5.947-14.348 8.416 8.416 0 0 0-5.947-2.461Z"/></g><defs><clipPath id="a"><path fill="#fff" d="M0 0h170v170H0z"/></clipPath></defs></svg>