<svg width="170" height="170" fill="none" viewBox="0 0 170 170" xmlns="http://www.w3.org/2000/svg"><g fill="#5E2EFF" clip-path="url(#prefix__a)"><path d="M0 21.25A21.25 21.25 0 0 1 21.25 0h127.5A21.25 21.25 0 0 1 170 21.25v127.5A21.25 21.25 0 0 1 148.75 170H21.25A21.25 21.25 0 0 1 0 148.75V21.25Zm159.375 0a10.623 10.623 0 0 0-10.625-10.625H21.25A10.625 10.625 0 0 0 10.625 21.25v127.5a10.625 10.625 0 0 0 10.625 10.625h127.5a10.624 10.624 0 0 0 10.625-10.625V21.25Z"/><path fill-opacity=".7" d="M37 37h96c3.3 0 6 2.7 6 6v84c0 3.3-2.7 6-6 6H37c-3.3 0-6-2.7-6-6V43c0-3.3 2.7-6 6-6Zm90 84V67H43v54h84ZM49 73v6h18v-6H49Zm24 0v18h48V73H73ZM49 97v6h18v-6H49Zm24 0v18h48V97H73Z"/></g><defs><clipPath id="prefix__a"><path fill="#fff" d="M0 0h170v170H0z"/></clipPath></defs></svg>