<svg width="170" height="170" viewBox="0 0 170 170" fill="none" xmlns="http://www.w3.org/2000/svg"><g clip-path="url(#a)"><path fill="#5E2EFF" d="M0 21.25A21.25 21.25 0 0 1 21.25 0h127.5A21.25 21.25 0 0 1 170 21.25v127.5A21.25 21.25 0 0 1 148.75 170H21.25A21.25 21.25 0 0 1 0 148.75V21.25Zm159.375 0a10.623 10.623 0 0 0-10.625-10.625H21.25A10.625 10.625 0 0 0 10.625 21.25v127.5a10.625 10.625 0 0 0 10.625 10.625h127.5a10.624 10.624 0 0 0 10.625-10.625V21.25Z"/><path fill="#5E2EFF" fill-opacity=".03" stroke="#5E2EFF" stroke-opacity=".7" d="M28.333 21.25h49.583v56.667H28.333z"/><path stroke="#5E2EFF" stroke-opacity=".5" d="M35.417 56.167h35.416M35.417 63.25h35.416m-35.416 7.083h35.416"/><path fill="#9272FD" d="M35.417 28.333h35.417v21.25H35.417z"/><g opacity=".44"><path fill="#9272FD" d="m43.59 42.5 4.165-4.395c.595-.626 1.698-.74 2.468-.256l3.203 2.048c.77.484 1.872.37 2.467-.242l4.043-4.238"/><path stroke="#5E2EFF" stroke-linecap="round" stroke-linejoin="round" stroke-width=".5" d="m43.59 42.5 4.165-4.395c.595-.626 1.698-.74 2.468-.256l3.203 2.048c.77.484 1.872.37 2.467-.242l4.043-4.238"/></g><path fill="#5E2EFF" fill-opacity=".03" stroke="#5E2EFF" stroke-opacity=".7" d="M92.083 21.25h49.583v56.667H92.083z"/><path stroke="#5E2EFF" stroke-opacity=".5" d="M99.167 56.167h35.416M99.167 63.25h35.416m-35.416 7.083h35.416"/><path fill="#9272FD" d="M99.167 28.333h35.417v21.25H99.167z"/><g opacity=".44"><path fill="#9272FD" d="m107.34 42.5 4.165-4.395c.595-.626 1.698-.74 2.468-.256l3.203 2.048c.77.484 1.872.37 2.467-.242l4.043-4.238"/><path stroke="#5E2EFF" stroke-linecap="round" stroke-linejoin="round" stroke-width=".5" d="m107.34 42.5 4.165-4.395c.595-.626 1.698-.74 2.468-.256l3.203 2.048c.77.484 1.872.37 2.467-.242l4.043-4.238"/></g><path fill="#5E2EFF" fill-opacity=".03" stroke="#5E2EFF" stroke-opacity=".7" d="M92.083 92.083h49.583v56.667H92.083z"/><path stroke="#5E2EFF" stroke-opacity=".5" d="M99.167 127h35.416m-35.416 7.083h35.416m-35.416 7.084h35.416"/><path fill="#9272FD" d="M99.167 99.167h35.417v21.25H99.167z"/><g opacity=".44"><path fill="#9272FD" d="m107.34 113.333 4.165-4.395c.595-.626 1.698-.739 2.468-.256l3.203 2.048c.77.484 1.872.37 2.467-.241l4.043-4.239"/><path stroke="#5E2EFF" stroke-linecap="round" stroke-linejoin="round" stroke-width=".5" d="m107.34 113.333 4.165-4.395c.595-.626 1.698-.739 2.468-.256l3.203 2.048c.77.484 1.872.37 2.467-.241l4.043-4.239"/></g><path fill="#5E2EFF" fill-opacity=".03" stroke="#5E2EFF" stroke-opacity=".7" d="M28.333 92.083h49.583v56.667H28.333z"/><path stroke="#5E2EFF" stroke-opacity=".5" d="M35.417 127h35.416m-35.416 7.083h35.416m-35.416 7.084h35.416"/><path fill="#9272FD" d="M35.417 99.167h35.417v21.25H35.417z"/><g opacity=".44"><path fill="#9272FD" d="m43.59 113.333 4.165-4.395c.595-.626 1.698-.739 2.468-.256l3.203 2.048c.77.484 1.872.37 2.467-.241l4.043-4.239"/><path stroke="#5E2EFF" stroke-linecap="round" stroke-linejoin="round" stroke-width=".5" d="m43.59 113.333 4.165-4.395c.595-.626 1.698-.739 2.468-.256l3.203 2.048c.77.484 1.872.37 2.467-.241l4.043-4.239"/></g></g><defs><clipPath id="a"><path fill="#fff" d="M0 0h170v170H0z"/></clipPath></defs></svg>