<svg width="170" height="170" viewBox="0 0 170 170" fill="none" xmlns="http://www.w3.org/2000/svg"><g clip-path="url(#a)"><path fill="#5E2EFF" d="M0 21.25A21.25 21.25 0 0 1 21.25 0h127.5A21.25 21.25 0 0 1 170 21.25v127.5A21.25 21.25 0 0 1 148.75 170H21.25A21.25 21.25 0 0 1 0 148.75V21.25Zm159.375 0a10.623 10.623 0 0 0-10.625-10.625H21.25A10.625 10.625 0 0 0 10.625 21.25v127.5a10.625 10.625 0 0 0 10.625 10.625h127.5a10.624 10.624 0 0 0 10.625-10.625V21.25Z"/><path stroke="#5E2EFF" stroke-width="4" d="M130 28v110"/><path stroke="#5E2EFF" stroke-width="6" d="M115.357 25.402H144.5m-29.143 115.265H144.5"/><path fill="#5E2EFF" d="M24 41.957V31h79v10.957H69.878V133H57.122V41.957H24Z" opacity=".3"/></g><defs><clipPath id="a"><path fill="#fff" d="M0 0h170v170H0z"/></clipPath></defs></svg>