<svg width="170" height="170" fill="none" viewBox="0 0 170 170" xmlns="http://www.w3.org/2000/svg"><g fill="#5E2EFF" clip-path="url(#prefix__a)"><path d="M0 21.25A21.25 21.25 0 0 1 21.25 0h127.5A21.25 21.25 0 0 1 170 21.25v127.5A21.25 21.25 0 0 1 148.75 170H21.25A21.25 21.25 0 0 1 0 148.75V21.25Zm159.375 0a10.623 10.623 0 0 0-10.625-10.625H21.25A10.625 10.625 0 0 0 10.625 21.25v127.5a10.625 10.625 0 0 0 10.625 10.625h127.5a10.624 10.624 0 0 0 10.625-10.625V21.25Z"/><path d="M35 110.5v-50A12.5 12.5 0 0 1 47.5 48h75A12.5 12.5 0 0 1 135 60.5v50a12.501 12.501 0 0 1-12.5 12.5h-75A12.5 12.5 0 0 1 35 110.5Zm42.438-43.169a3.126 3.126 0 0 0-4.938 2.544v31.25a3.127 3.127 0 0 0 3.348 3.115 3.131 3.131 0 0 0 1.59-.571l21.874-15.625a3.127 3.127 0 0 0 .964-3.975 3.129 3.129 0 0 0-.963-1.113L77.436 67.331Z"/></g><defs><clipPath id="prefix__a"><path fill="#fff" d="M0 0h170v170H0z"/></clipPath></defs></svg>