<svg width="170" height="170" viewBox="0 0 170 170" fill="none" xmlns="http://www.w3.org/2000/svg">
<g clip-path="url(#clip0_307_1326)">
<path d="M0 21.25C0 15.6141 2.23883 10.2091 6.22398 6.22398C10.2091 2.23883 15.6141 0 21.25 0L148.75 0C154.386 0 159.791 2.23883 163.776 6.22398C167.761 10.2091 170 15.6141 170 21.25V148.75C170 154.386 167.761 159.791 163.776 163.776C159.791 167.761 154.386 170 148.75 170H21.25C15.6141 170 10.2091 167.761 6.22398 163.776C2.23883 159.791 0 154.386 0 148.75V21.25ZM159.375 21.25C159.375 18.4321 158.256 15.7296 156.263 13.737C154.27 11.7444 151.568 10.625 148.75 10.625H21.25C18.4321 10.625 15.7296 11.7444 13.737 13.737C11.7444 15.7296 10.625 18.4321 10.625 21.25V148.75C10.625 151.568 11.7444 154.27 13.737 156.263C15.7296 158.256 18.4321 159.375 21.25 159.375H148.75C151.568 159.375 154.27 158.256 156.263 156.263C158.256 154.27 159.375 151.568 159.375 148.75V21.25Z" fill="#5E2EFF"/>
<rect x="28.3334" y="21.25" width="49.5833" height="56.6667" fill="#5E2EFF" fill-opacity="0.03" stroke="#5E2EFF" stroke-opacity="0.7"/>
<line x1="35.4167" y1="56.1667" x2="70.8334" y2="56.1667" stroke="#5E2EFF" stroke-opacity="0.5"/>
<line x1="35.4167" y1="63.25" x2="70.8334" y2="63.25" stroke="#5E2EFF" stroke-opacity="0.5"/>
<line x1="35.4167" y1="70.3333" x2="70.8334" y2="70.3333" stroke="#5E2EFF" stroke-opacity="0.5"/>
<rect x="35.4167" y="28.3333" width="35.4167" height="21.25" fill="#9272FD"/>
<g opacity="0.44">
<path d="M43.59 42.5L47.7553 38.1049C48.3503 37.4791 49.4529 37.3653 50.223 37.8489L53.4257 39.8971C54.1957 40.3807 55.2983 40.2669 55.8933 39.6553L59.9361 35.4167" fill="#9272FD"/>
<path d="M43.59 42.5L47.7553 38.1049C48.3503 37.4791 49.4529 37.3653 50.223 37.8489L53.4257 39.8971C54.1957 40.3807 55.2983 40.2669 55.8933 39.6553L59.9361 35.4167" stroke="#5E2EFF" stroke-width="0.5" stroke-linecap="round" stroke-linejoin="round"/>
</g>
<rect x="92.0834" y="21.25" width="49.5833" height="56.6667" fill="#5E2EFF" fill-opacity="0.03" stroke="#5E2EFF" stroke-opacity="0.7"/>
<line x1="99.1667" y1="56.1667" x2="134.583" y2="56.1667" stroke="#5E2EFF" stroke-opacity="0.5"/>
<line x1="99.1667" y1="63.25" x2="134.583" y2="63.25" stroke="#5E2EFF" stroke-opacity="0.5"/>
<line x1="99.1667" y1="70.3333" x2="134.583" y2="70.3333" stroke="#5E2EFF" stroke-opacity="0.5"/>
<rect x="99.1667" y="28.3333" width="35.4167" height="21.25" fill="#9272FD"/>
<g opacity="0.44">
<path d="M107.34 42.5L111.505 38.1049C112.1 37.4791 113.203 37.3653 113.973 37.8489L117.176 39.8971C117.946 40.3807 119.048 40.2669 119.643 39.6553L123.686 35.4167" fill="#9272FD"/>
<path d="M107.34 42.5L111.505 38.1049C112.1 37.4791 113.203 37.3653 113.973 37.8489L117.176 39.8971C117.946 40.3807 119.048 40.2669 119.643 39.6553L123.686 35.4167" stroke="#5E2EFF" stroke-width="0.5" stroke-linecap="round" stroke-linejoin="round"/>
</g>
<rect x="92.0834" y="92.0833" width="49.5833" height="56.6667" fill="#5E2EFF" fill-opacity="0.03" stroke="#5E2EFF" stroke-opacity="0.7"/>
<line x1="99.1667" y1="127" x2="134.583" y2="127" stroke="#5E2EFF" stroke-opacity="0.5"/>
<line x1="99.1667" y1="134.083" x2="134.583" y2="134.083" stroke="#5E2EFF" stroke-opacity="0.5"/>
<line x1="99.1667" y1="141.167" x2="134.583" y2="141.167" stroke="#5E2EFF" stroke-opacity="0.5"/>
<rect x="99.1667" y="99.1667" width="35.4167" height="21.25" fill="#9272FD"/>
<g opacity="0.44">
<path d="M107.34 113.333L111.505 108.938C112.1 108.312 113.203 108.199 113.973 108.682L117.176 110.73C117.946 111.214 119.048 111.1 119.643 110.489L123.686 106.25" fill="#9272FD"/>
<path d="M107.34 113.333L111.505 108.938C112.1 108.312 113.203 108.199 113.973 108.682L117.176 110.73C117.946 111.214 119.048 111.1 119.643 110.489L123.686 106.25" stroke="#5E2EFF" stroke-width="0.5" stroke-linecap="round" stroke-linejoin="round"/>
</g>
<rect x="28.3334" y="92.0833" width="49.5833" height="56.6667" fill="#5E2EFF" fill-opacity="0.03" stroke="#5E2EFF" stroke-opacity="0.7"/>
<line x1="35.4167" y1="127" x2="70.8334" y2="127" stroke="#5E2EFF" stroke-opacity="0.5"/>
<line x1="35.4167" y1="134.083" x2="70.8334" y2="134.083" stroke="#5E2EFF" stroke-opacity="0.5"/>
<line x1="35.4167" y1="141.167" x2="70.8334" y2="141.167" stroke="#5E2EFF" stroke-opacity="0.5"/>
<rect x="35.4167" y="99.1667" width="35.4167" height="21.25" fill="#9272FD"/>
<g opacity="0.44">
<path d="M43.59 113.333L47.7553 108.938C48.3503 108.312 49.4529 108.199 50.223 108.682L53.4257 110.73C54.1957 111.214 55.2983 111.1 55.8933 110.489L59.9361 106.25" fill="#9272FD"/>
<path d="M43.59 113.333L47.7553 108.938C48.3503 108.312 49.4529 108.199 50.223 108.682L53.4257 110.73C54.1957 111.214 55.2983 111.1 55.8933 110.489L59.9361 106.25" stroke="#5E2EFF" stroke-width="0.5" stroke-linecap="round" stroke-linejoin="round"/>
</g>
</g>
<defs>
<clipPath id="clip0_307_1326">
<rect width="170" height="170" fill="white"/>
</clipPath>
</defs>
</svg>
