<svg width="170" height="170" viewBox="0 0 170 170" fill="none" xmlns="http://www.w3.org/2000/svg">
<g clip-path="url(#clip0_307_1289)">
<path d="M0 21.25C0 15.6141 2.23883 10.2091 6.22398 6.22398C10.2091 2.23883 15.6141 0 21.25 0L148.75 0C154.386 0 159.791 2.23883 163.776 6.22398C167.761 10.2091 170 15.6141 170 21.25V148.75C170 154.386 167.761 159.791 163.776 163.776C159.791 167.761 154.386 170 148.75 170H21.25C15.6141 170 10.2091 167.761 6.22398 163.776C2.23883 159.791 0 154.386 0 148.75V21.25ZM159.375 21.25C159.375 18.4321 158.256 15.7296 156.263 13.737C154.27 11.7444 151.568 10.625 148.75 10.625H21.25C18.4321 10.625 15.7296 11.7444 13.737 13.737C11.7444 15.7296 10.625 18.4321 10.625 21.25V148.75C10.625 151.568 11.7444 154.27 13.737 156.263C15.7296 158.256 18.4321 159.375 21.25 159.375H148.75C151.568 159.375 154.27 158.256 156.263 156.263C158.256 154.27 159.375 151.568 159.375 148.75V21.25Z" fill="#5E2EFF"/>
<g clip-path="url(#clip1_307_1289)">
<path d="M135 104.711C135 109.738 131.425 115.913 127.084 118.413L92.9162 138.112C88.5495 140.638 81.4249 140.638 77.0838 138.112L42.9162 118.413C38.5495 115.887 35 109.738 35 104.711V65.2888C35 60.2621 38.5495 54.0872 42.9162 51.5866L77.0838 31.8882C81.4505 29.3621 88.5751 29.3621 92.9162 31.8882L127.058 51.5866C131.425 54.0872 134.974 60.2621 134.974 65.2888L135 104.711Z" fill="#5E2EFF" fill-opacity="0.7"/>
<path d="M75.2963 75.878H120.547V63.171H75.3984C68.9377 63.171 63.5751 65.3909 59.4893 69.7286C49.6323 80.2157 49.377 106.625 49.377 106.625H120.215V82.7418H107.497V93.9179H62.9622C63.2431 89.7588 65.1584 82.3081 68.7845 78.4551C70.4188 76.6945 72.4873 75.878 75.2963 75.878Z" fill="white"/>
</g>
</g>
<defs>
<clipPath id="clip0_307_1289">
<rect width="170" height="170" fill="white"/>
</clipPath>
<clipPath id="clip1_307_1289">
<rect width="100" height="110" fill="white" transform="translate(35 30)"/>
</clipPath>
</defs>
</svg>
