<svg width="24" height="24" viewBox="0 0 24 24" fill="none" xmlns="http://www.w3.org/2000/svg">
    <g clip-path="url(#clip0_137_853)">
        <path d="M0 3C0 2.20435 0.316071 1.44129 0.87868 0.87868C1.44129 0.316071 2.20435 0 3 0L21 0C21.7956 0 22.5587 0.316071 23.1213 0.87868C23.6839 1.44129 24 2.20435 24 3V21C24 21.7956 23.6839 22.5587 23.1213 23.1213C22.5587 23.6839 21.7956 24 21 24H3C2.20435 24 1.44129 23.6839 0.87868 23.1213C0.316071 22.5587 0 21.7956 0 21V3ZM22.5 3C22.5 2.60218 22.342 2.22064 22.0607 1.93934C21.7794 1.65804 21.3978 1.5 21 1.5H3C2.60218 1.5 2.22064 1.65804 1.93934 1.93934C1.65804 2.22064 1.5 2.60218 1.5 3V21C1.5 21.3978 1.65804 21.7794 1.93934 22.0607C2.22064 22.342 2.60218 22.5 3 22.5H21C21.3978 22.5 21.7794 22.342 22.0607 22.0607C22.342 21.7794 22.5 21.3978 22.5 21V3Z"
              fill="#5E2EFF"/>
        <path d="M3.00023 16.3101C3.00321 16.4283 3.03939 16.5433 3.10465 16.6419C3.1699 16.7405 3.26159 16.8188 3.36924 16.8677L8.94932 19.4007C9.04533 19.4443 9.15076 19.4632 9.25595 19.4555C9.36113 19.4478 9.4627 19.4138 9.55134 19.3566C9.63997 19.2995 9.71285 19.221 9.76328 19.1284C9.81371 19.0358 9.84008 18.932 9.83997 18.8265L9.83097 5.17224C9.83087 5.05567 9.79843 4.94141 9.73726 4.84217C9.67609 4.74294 9.58859 4.66262 9.48448 4.61016C9.38038 4.5577 9.26376 4.53515 9.14761 4.54502C9.03145 4.5549 8.92031 4.5968 8.82655 4.66608L3.8052 8.37642C3.7323 8.4303 3.67189 8.49929 3.62808 8.57866C3.58428 8.65803 3.55813 8.74592 3.5514 8.83632L3.00167 16.2473C3.00014 16.2682 2.99966 16.2891 3.00023 16.3101ZM4.29085 15.902L4.78658 9.21774L8.57149 6.42054L8.57923 17.8489L4.29085 15.902ZM11.55 21H12.45V19.2H11.55V21ZM11.55 18.3H12.45V16.5H11.55V18.3ZM11.55 15.6H12.45V13.8H11.55V15.6ZM11.55 12.9H12.45V11.1H11.55V12.9ZM11.55 10.2H12.45V8.4H11.55V10.2ZM11.55 7.5H12.45V5.7H11.55V7.5ZM11.55 4.8H12.45V3H11.55V4.8ZM14.16 18.8267C14.1599 18.9321 14.1863 19.0359 14.2367 19.1285C14.2871 19.2211 14.36 19.2996 14.4486 19.3567C14.5372 19.4138 14.6388 19.4478 14.7439 19.4556C14.8491 19.4633 14.9545 19.4445 15.0505 19.4009L20.6306 16.8677C20.7383 16.8188 20.83 16.7406 20.8953 16.642C20.9606 16.5433 20.9968 16.4283 20.9998 16.3101C21.0003 16.2891 20.9999 16.2681 20.9983 16.2471L20.4486 8.83632C20.4419 8.74592 20.4157 8.65803 20.3719 8.57866C20.3281 8.49929 20.2677 8.4303 20.1948 8.37642L15.1734 4.66608C15.0797 4.5968 14.9685 4.5549 14.8524 4.54502C14.7362 4.53515 14.6196 4.5577 14.5155 4.61016C14.4114 4.66262 14.3239 4.74294 14.2627 4.84217C14.2016 4.94141 14.1691 5.05567 14.169 5.17224L14.16 18.8267Z"
              fill="#5E2EFF" fill-opacity="0.3"/>
    </g>
    <defs>
        <clipPath id="clip0_137_853">
            <rect width="24" height="24" fill="white"/>
        </clipPath>
    </defs>
</svg>
