<svg width="170" height="170" viewBox="0 0 170 170" fill="none" xmlns="http://www.w3.org/2000/svg">
<g clip-path="url(#clip0_307_1384)">
<path d="M0 21.25C0 15.6141 2.23883 10.2091 6.22398 6.22398C10.2091 2.23883 15.6141 0 21.25 0L148.75 0C154.386 0 159.791 2.23883 163.776 6.22398C167.761 10.2091 170 15.6141 170 21.25V148.75C170 154.386 167.761 159.791 163.776 163.776C159.791 167.761 154.386 170 148.75 170H21.25C15.6141 170 10.2091 167.761 6.22398 163.776C2.23883 159.791 0 154.386 0 148.75V21.25ZM159.375 21.25C159.375 18.4321 158.256 15.7296 156.263 13.737C154.27 11.7444 151.568 10.625 148.75 10.625H21.25C18.4321 10.625 15.7296 11.7444 13.737 13.737C11.7444 15.7296 10.625 18.4321 10.625 21.25V148.75C10.625 151.568 11.7444 154.27 13.737 156.263C15.7296 158.256 18.4321 159.375 21.25 159.375H148.75C151.568 159.375 154.27 158.256 156.263 156.263C158.256 154.27 159.375 151.568 159.375 148.75V21.25Z" fill="#5E2EFF"/>
<path d="M21.2516 115.53C21.2727 116.367 21.529 117.182 21.9912 117.88C22.4535 118.579 23.103 119.133 23.8654 119.48L63.391 137.422C64.0711 137.731 64.8179 137.864 65.563 137.81C66.308 137.755 67.0274 137.514 67.6553 137.11C68.2832 136.705 68.7993 136.149 69.1566 135.493C69.5138 134.837 69.7005 134.101 69.6998 133.354L69.636 36.6367C69.6354 35.811 69.4056 35.0016 68.9723 34.2987C68.539 33.5958 67.9191 33.0269 67.1818 32.6553C66.4444 32.2837 65.6183 32.124 64.7955 32.1939C63.9728 32.2638 63.1855 32.5607 62.5214 33.0514L26.9535 59.333C26.4371 59.7146 26.0092 60.2033 25.6989 60.7655C25.3887 61.3277 25.2034 61.9502 25.1558 62.5906L21.2618 115.085C21.251 115.233 21.2476 115.381 21.2516 115.53ZM30.3935 112.639L33.9049 65.2923L60.7147 45.4788L60.7696 126.43L30.3935 112.639ZM81.8125 148.75H88.1875V136H81.8125V148.75ZM81.8125 129.625H88.1875V116.875H81.8125V129.625ZM81.8125 110.5H88.1875V97.75H81.8125V110.5ZM81.8125 91.375H88.1875V78.625H81.8125V91.375ZM81.8125 72.25H88.1875V59.5H81.8125V72.25ZM81.8125 53.125H88.1875V40.375H81.8125V53.125ZM81.8125 34H88.1875V21.25H81.8125V34ZM100.3 133.356C100.3 134.103 100.486 134.838 100.843 135.494C101.201 136.149 101.717 136.705 102.344 137.11C102.972 137.515 103.691 137.755 104.436 137.81C105.181 137.865 105.928 137.732 106.608 137.423L146.133 119.48C146.896 119.133 147.546 118.579 148.008 117.88C148.471 117.182 148.727 116.367 148.748 115.53C148.752 115.381 148.749 115.232 148.738 115.084L144.844 62.5906C144.797 61.9502 144.611 61.3277 144.301 60.7655C143.991 60.2033 143.563 59.7146 143.046 59.333L107.479 33.0514C106.814 32.5607 106.027 32.2638 105.204 32.1939C104.382 32.124 103.556 32.2837 102.818 32.6553C102.081 33.0269 101.461 33.5958 101.028 34.2987C100.594 35.0016 100.365 35.811 100.364 36.6367L100.3 133.356Z" fill="#5E2EFF"/>
</g>
<defs>
<clipPath id="clip0_307_1384">
<rect width="170" height="170" fill="white"/>
</clipPath>
</defs>
</svg>
