<svg width="24" height="24" viewBox="0 0 24 24" fill="none" xmlns="http://www.w3.org/2000/svg">
    <g clip-path="url(#clip0_137_796)">
        <path d="M0 3C0 2.20435 0.316071 1.44129 0.87868 0.87868C1.44129 0.316071 2.20435 0 3 0L21 0C21.7956 0 22.5587 0.316071 23.1213 0.87868C23.6839 1.44129 24 2.20435 24 3V21C24 21.7956 23.6839 22.5587 23.1213 23.1213C22.5587 23.6839 21.7956 24 21 24H3C2.20435 24 1.44129 23.6839 0.87868 23.1213C0.316071 22.5587 0 21.7956 0 21V3ZM22.5 3C22.5 2.60218 22.342 2.22064 22.0607 1.93934C21.7794 1.65804 21.3978 1.5 21 1.5H3C2.60218 1.5 2.22064 1.65804 1.93934 1.93934C1.65804 2.22064 1.5 2.60218 1.5 3V21C1.5 21.3978 1.65804 21.7794 1.93934 22.0607C2.22064 22.342 2.60218 22.5 3 22.5H21C21.3978 22.5 21.7794 22.342 22.0607 22.0607C22.342 21.7794 22.5 21.3978 22.5 21V3Z"
              fill="#5E2EFF"/>
        <g clip-path="url(#clip1_137_796)">
            <path d="M12.515 5.019C12.3436 5.00635 12.1718 5.00001 12 5V4C12.1965 4.0001 12.393 4.00743 12.589 4.022L12.515 5.019ZM14.519 5.469C14.1984 5.3453 13.8692 5.24537 13.534 5.17L13.753 4.194C14.136 4.28 14.513 4.394 14.879 4.536L14.519 5.469ZM15.889 6.179C15.746 6.08365 15.5996 5.99359 15.45 5.909L15.943 5.039C16.2849 5.23274 16.6121 5.45132 16.922 5.693L16.307 6.482C16.1714 6.37623 16.032 6.2755 15.889 6.18V6.179ZM17.723 7.969C17.5252 7.68798 17.3069 7.42192 17.07 7.173L17.794 6.483C18.064 6.768 18.314 7.073 18.541 7.393L17.723 7.969ZM18.467 9.321C18.4014 9.16246 18.33 9.00636 18.253 8.853L19.146 8.403C19.3226 8.75409 19.473 9.11774 19.596 9.491L18.646 9.804C18.5923 9.64087 18.5326 9.47976 18.467 9.321ZM18.997 11.828C18.9889 11.4843 18.9555 11.1417 18.897 10.803L19.882 10.633C19.949 11.019 19.988 11.411 19.998 11.803L18.998 11.828H18.997ZM18.866 13.366C18.899 13.196 18.926 13.027 18.947 12.856L19.94 12.979C19.892 13.3692 19.8151 13.7552 19.71 14.134L18.746 13.867C18.792 13.702 18.832 13.535 18.866 13.366ZM17.914 15.745C18.098 15.455 18.26 15.151 18.4 14.837L19.314 15.242C19.154 15.602 18.969 15.948 18.759 16.28L17.914 15.745ZM16.95 16.95C17.072 16.828 17.189 16.702 17.3 16.572L18.058 17.225C17.9296 17.3738 17.7959 17.5179 17.657 17.657L16.95 16.95Z"
                  fill="#5E2EFF" fill-opacity="0.3"/>
            <path d="M12 5C10.8489 5.00008 9.71556 5.28405 8.70039 5.82674C7.68522 6.36943 6.81956 7.1541 6.18007 8.11125C5.54058 9.0684 5.14701 10.1685 5.03421 11.3141C4.92141 12.4596 5.09286 13.6154 5.53339 14.6789C5.97391 15.7423 6.66991 16.6808 7.55974 17.4111C8.44956 18.1413 9.50575 18.6409 10.6347 18.8655C11.7637 19.0901 12.9307 19.0328 14.0323 18.6987C15.1338 18.3645 16.136 17.7639 16.95 16.95L17.657 17.657C16.7267 18.5878 15.5813 19.2747 14.3221 19.657C13.0628 20.0393 11.7288 20.105 10.4381 19.8485C9.14737 19.5919 7.93987 19.021 6.92256 18.1862C5.90525 17.3515 5.10955 16.2787 4.60595 15.0629C4.10234 13.8471 3.9064 12.5259 4.03547 11.2163C4.16453 9.90666 4.61463 8.6491 5.34588 7.55502C6.07713 6.46094 7.06695 5.56411 8.22764 4.944C9.38833 4.3239 10.6841 3.99965 12 4V5Z"
                  fill="#5E2EFF" fill-opacity="0.3"/>
            <path d="M11.5 7C11.6326 7 11.7598 7.05268 11.8536 7.14645C11.9473 7.24021 12 7.36739 12 7.5V12.71L15.248 14.566C15.3598 14.6334 15.4408 14.7419 15.4736 14.8683C15.5065 14.9946 15.4886 15.1288 15.4238 15.2422C15.3591 15.3556 15.2525 15.4391 15.127 15.4749C15.0014 15.5108 14.8669 15.4961 14.752 15.434L11.252 13.434C11.1755 13.3903 11.1119 13.3271 11.0676 13.2509C11.0234 13.1747 11 13.0881 11 13V7.5C11 7.36739 11.0527 7.24021 11.1464 7.14645C11.2402 7.05268 11.3674 7 11.5 7Z"
                  fill="#5E2EFF" fill-opacity="0.3"/>
        </g>
    </g>
    <defs>
        <clipPath id="clip0_137_796">
            <rect width="24" height="24" fill="white"/>
        </clipPath>
        <clipPath id="clip1_137_796">
            <rect width="16" height="16" fill="white" transform="translate(4 4)"/>
        </clipPath>
    </defs>
</svg>
