<svg width="170" height="170" viewBox="0 0 170 170" fill="none" xmlns="http://www.w3.org/2000/svg">
<g clip-path="url(#clip0_307_1366)">
<path d="M0 21.25C0 15.6141 2.23883 10.2091 6.22398 6.22398C10.2091 2.23883 15.6141 0 21.25 0L148.75 0C154.386 0 159.791 2.23883 163.776 6.22398C167.761 10.2091 170 15.6141 170 21.25V148.75C170 154.386 167.761 159.791 163.776 163.776C159.791 167.761 154.386 170 148.75 170H21.25C15.6141 170 10.2091 167.761 6.22398 163.776C2.23883 159.791 0 154.386 0 148.75V21.25ZM159.375 21.25C159.375 18.4321 158.256 15.7296 156.263 13.737C154.27 11.7444 151.568 10.625 148.75 10.625H21.25C18.4321 10.625 15.7296 11.7444 13.737 13.737C11.7444 15.7296 10.625 18.4321 10.625 21.25V148.75C10.625 151.568 11.7444 154.27 13.737 156.263C15.7296 158.256 18.4321 159.375 21.25 159.375H148.75C151.568 159.375 154.27 158.256 156.263 156.263C158.256 154.27 159.375 151.568 159.375 148.75V21.25Z" fill="#5E2EFF"/>
<path d="M88.5406 37.0056C87.3624 36.9186 86.1814 36.8751 85 36.875V30C86.3512 30.0007 87.7019 30.0511 89.0494 30.1513L88.5406 37.0056ZM102.318 40.0994C100.114 39.249 97.8509 38.5619 95.5463 38.0437L97.0519 31.3338C99.685 31.925 102.277 32.7088 104.793 33.685L102.318 40.0994ZM111.737 44.9806C110.754 44.3251 109.747 43.7059 108.719 43.1244L112.108 37.1431C114.459 38.4751 116.708 39.9778 118.839 41.6394L114.611 47.0638C113.679 46.3366 112.72 45.644 111.737 44.9875V44.9806ZM124.346 57.2869C122.986 55.3548 121.485 53.5257 119.856 51.8144L124.834 47.0706C126.69 49.03 128.409 51.1269 129.969 53.3269L124.346 57.2869ZM129.461 66.5819C129.009 65.4919 128.519 64.4187 127.989 63.3644L134.129 60.2706C135.343 62.6843 136.377 65.1845 137.222 67.7506L130.691 69.9025C130.322 68.781 129.911 67.6733 129.461 66.5819ZM133.104 83.8175C133.049 81.4548 132.819 79.0995 132.417 76.7706L139.189 75.6019C139.649 78.2556 139.918 80.9506 139.986 83.6456L133.111 83.8175H133.104ZM132.204 94.3913C132.431 93.2225 132.616 92.0606 132.761 90.885L139.588 91.7306C139.257 94.4129 138.729 97.0671 138.006 99.6713L131.379 97.8356C131.695 96.7013 131.97 95.5531 132.204 94.3913ZM125.659 110.747C126.924 108.753 128.037 106.663 129 104.504L135.284 107.289C134.184 109.764 132.912 112.143 131.468 114.425L125.659 110.747ZM119.031 119.031C119.87 118.193 120.674 117.326 121.438 116.433L126.649 120.922C125.766 121.945 124.847 122.936 123.892 123.892L119.031 119.031Z" fill="#5E2EFF"/>
<path d="M85 36.875C77.086 36.8756 69.2944 38.8278 62.3151 42.5588C55.3358 46.2898 49.3844 51.6844 44.9879 58.2648C40.5914 64.8452 37.8856 72.4083 37.1101 80.2842C36.3346 88.16 37.5133 96.1056 40.542 103.417C43.5706 110.729 48.3556 117.18 54.4731 122.201C60.5907 127.222 67.8519 130.656 75.6138 132.2C83.3756 133.744 91.3985 133.35 98.9718 131.053C106.545 128.756 113.435 124.627 119.031 119.031L123.892 123.892C117.496 130.291 109.621 135.014 100.964 137.642C92.3069 140.27 83.1353 140.722 74.2617 138.958C65.3881 137.195 57.0865 133.269 50.0925 127.53C43.0985 121.791 37.628 114.416 34.1658 106.057C30.7035 97.6989 29.3564 88.6154 30.2437 79.6118C31.1311 70.6083 34.2255 61.9626 39.2528 54.4407C44.2802 46.9189 51.0852 40.7533 59.0649 36.49C67.0447 32.2268 75.9528 29.9976 85 30V36.875Z" fill="#5E2EFF"/>
<path d="M81.5625 50.625C82.4742 50.625 83.3485 50.9872 83.9932 51.6318C84.6378 52.2765 85 53.1508 85 54.0625V89.8812L107.33 102.641C108.099 103.105 108.655 103.851 108.881 104.719C109.107 105.588 108.984 106.511 108.539 107.29C108.094 108.069 107.361 108.644 106.498 108.89C105.635 109.136 104.71 109.036 103.92 108.609L79.8575 94.8587C79.3314 94.5582 78.894 94.124 78.5898 93.6C78.2855 93.076 78.1252 92.4809 78.125 91.875V54.0625C78.125 53.1508 78.4872 52.2765 79.1318 51.6318C79.7765 50.9872 80.6508 50.625 81.5625 50.625Z" fill="#5E2EFF"/>
</g>
<defs>
<clipPath id="clip0_307_1366">
<rect width="170" height="170" fill="white"/>
</clipPath>
</defs>
</svg>
